<svg width="617" height="351" viewBox="0 0 617 351" fill="none" xmlns="http://www.w3.org/2000/svg">
<g clip-path="url(#clip0_10_205)">
<path d="M602.495 295.955C600.265 277.982 589.151 260.273 572.049 254.424C578.794 272.924 578.792 293.218 572.045 311.716C569.417 318.841 565.754 326.491 568.226 333.672C569.764 338.139 573.526 341.558 577.732 343.695C581.938 345.833 586.606 346.851 591.215 347.85L592.123 348.602C599.44 332.041 604.725 313.928 602.495 295.955Z" fill="#F0F0F0"/>
<path d="M571.879 254.764C581.839 265.949 588.029 279.994 589.571 294.906C589.959 298.11 589.842 301.355 589.222 304.523C588.519 307.589 587.009 310.41 584.85 312.694C582.88 314.863 580.614 316.854 579.204 319.466C578.502 320.814 578.093 322.295 578.002 323.813C577.912 325.33 578.142 326.85 578.678 328.272C579.923 331.85 582.376 334.766 584.874 337.535C587.648 340.609 590.577 343.758 591.756 347.833C591.899 348.326 592.655 348.075 592.512 347.582C590.461 340.492 583.594 336.465 580.319 330.079C578.791 327.099 578.15 323.64 579.582 320.494C580.835 317.744 583.17 315.689 585.184 313.509C587.323 311.313 588.892 308.624 589.756 305.68C590.534 302.554 590.776 299.318 590.472 296.111C589.901 288.88 588.199 281.784 585.429 275.083C582.31 267.417 577.906 260.342 572.406 254.165C572.066 253.783 571.541 254.384 571.879 254.764Z" fill="white"/>
<path d="M589.356 290.075C591.817 289.476 593.986 288.02 595.475 285.967C596.963 283.913 597.675 281.396 597.483 278.865C597.443 278.353 596.647 278.392 596.688 278.905C596.871 281.262 596.207 283.606 594.817 285.515C593.427 287.425 591.401 288.773 589.106 289.317C588.608 289.436 588.86 290.193 589.356 290.075Z" fill="white"/>
<path d="M585.994 311.726C581.549 309.065 578.268 304.824 576.804 299.847C576.66 299.354 575.904 299.604 576.048 300.097C577.581 305.274 581.004 309.681 585.636 312.438C586.078 312.701 586.433 311.987 585.994 311.726Z" fill="white"/>
<path d="M581.571 268.173C580.667 268.604 579.671 268.803 578.671 268.752C577.671 268.701 576.7 268.402 575.844 267.882C575.406 267.614 575.051 268.328 575.486 268.595C576.434 269.165 577.507 269.494 578.612 269.552C579.716 269.611 580.818 269.398 581.821 268.931C581.919 268.895 582 268.823 582.047 268.729C582.094 268.636 582.104 268.528 582.074 268.427C582.041 268.327 581.969 268.244 581.875 268.196C581.781 268.149 581.672 268.141 581.571 268.173Z" fill="white"/>
<path d="M519.919 286.527C520.188 286.702 520.457 286.877 520.726 287.059C524.328 289.433 527.731 292.096 530.903 295.022C531.151 295.244 531.4 295.473 531.642 295.702C539.208 302.834 545.387 311.311 549.865 320.704C551.643 324.443 553.135 328.312 554.328 332.278C555.975 337.755 557.326 343.825 560.586 348.305C560.921 348.776 561.285 349.226 561.675 349.653H591.137C591.204 349.619 591.271 349.592 591.338 349.558L592.515 349.612C592.467 349.403 592.414 349.188 592.367 348.979C592.34 348.858 592.306 348.736 592.279 348.615C592.259 348.534 592.239 348.453 592.226 348.379C592.219 348.352 592.212 348.325 592.206 348.305C592.192 348.231 592.172 348.164 592.158 348.096C591.863 346.89 591.558 345.685 591.244 344.479C591.244 344.472 591.244 344.472 591.238 344.465C588.824 335.282 585.625 326.221 581.155 317.935C581.02 317.685 580.886 317.429 580.738 317.18C578.703 313.456 576.367 309.905 573.754 306.562C572.318 304.737 570.79 302.985 569.176 301.314C565 297.005 560.173 293.381 554.873 290.575C544.306 284.984 532.072 282.841 520.78 286.257C520.491 286.345 520.208 286.432 519.919 286.527Z" fill="#F0F0F0"/>
<path d="M519.986 286.901C534.656 289.822 548.036 297.301 558.224 308.277C560.459 310.6 562.315 313.263 563.723 316.166C565.003 319.038 565.493 322.202 565.141 325.328C564.871 328.249 564.258 331.206 564.701 334.142C564.95 335.642 565.513 337.072 566.352 338.338C567.191 339.604 568.288 340.679 569.571 341.49C572.714 343.596 576.425 344.445 580.082 345.148C584.143 345.928 588.374 346.675 591.763 349.217C592.174 349.525 592.626 348.869 592.216 348.561C586.32 344.138 578.417 345.066 571.967 341.943C568.957 340.486 566.366 338.111 565.621 334.735C564.969 331.783 565.599 328.733 565.897 325.778C566.285 322.733 565.924 319.64 564.844 316.768C563.588 313.802 561.838 311.072 559.668 308.696C554.869 303.266 549.247 298.627 543.01 294.948C535.915 290.71 528.148 287.719 520.047 286.105C519.545 286.006 519.487 286.802 519.986 286.901Z" fill="white"/>
<path d="M555.151 304.549C556.756 302.586 557.613 300.114 557.568 297.577C557.524 295.039 556.58 292.599 554.907 290.694C554.567 290.31 553.955 290.821 554.295 291.206C555.857 292.977 556.735 295.25 556.772 297.613C556.809 299.976 556.002 302.275 554.496 304.094C554.17 304.49 554.826 304.942 555.151 304.549Z" fill="white"/>
<path d="M565.472 323.865C560.325 324.423 555.158 323.016 550.999 319.925C550.588 319.619 550.135 320.275 550.546 320.582C554.879 323.79 560.26 325.243 565.615 324.65C566.125 324.593 565.98 323.808 565.472 323.865Z" fill="white"/>
<path d="M535.779 291.759C535.316 292.649 534.639 293.409 533.811 293.971C532.982 294.534 532.027 294.881 531.031 294.983C530.52 295.033 530.666 295.818 531.173 295.768C532.273 295.651 533.327 295.266 534.244 294.646C535.161 294.027 535.913 293.192 536.434 292.214C536.49 292.126 536.512 292.019 536.493 291.916C536.474 291.813 536.417 291.721 536.333 291.658C536.246 291.599 536.139 291.576 536.035 291.595C535.932 291.613 535.839 291.673 535.779 291.759Z" fill="white"/>
<path d="M10.7549 79.4971C16.6946 79.4971 21.5097 74.6711 21.5097 68.7179C21.5097 62.7646 16.6946 57.9386 10.7549 57.9386C4.81512 57.9386 0 62.7646 0 68.7179C0 74.6711 4.81512 79.4971 10.7549 79.4971Z" fill="#E4E4E4"/>
<path d="M550.515 79.4971C556.455 79.4971 561.27 74.6711 561.27 68.7179C561.27 62.7646 556.455 57.9386 550.515 57.9386C544.575 57.9386 539.76 62.7646 539.76 68.7179C539.76 74.6711 544.575 79.4971 550.515 79.4971Z" fill="#E4E4E4"/>
<path d="M553.876 68.0442H440.198V69.3916H553.876V68.0442Z" fill="#E4E4E4"/>
<path d="M410.284 68.0442H305.233V69.3916H410.284V68.0442Z" fill="#E4E4E4"/>
<path d="M275.318 68.0442H169.379V69.3916H275.318V68.0442Z" fill="#E4E4E4"/>
<path d="M139.591 68.0442H10.7549V69.3916H139.591V68.0442Z" fill="#E4E4E4"/>
<path d="M157.962 87.2447C154.971 87.2447 152.047 86.3557 149.56 84.69C147.073 83.0244 145.134 80.657 143.989 77.8872C142.845 75.1174 142.545 72.0695 143.129 69.1291C143.712 66.1887 145.153 63.4877 147.268 61.3678C149.383 59.2478 152.078 57.8041 155.012 57.2193C157.945 56.6344 160.986 56.9345 163.75 58.0818C166.514 59.2291 168.876 61.172 170.537 63.6648C172.199 66.1576 173.086 69.0883 173.086 72.0863C173.082 76.1052 171.487 79.9582 168.652 82.7999C165.816 85.6417 161.972 87.2402 157.962 87.2447Z" fill="#C4CCFF"/>
<path d="M154.601 84.2131C151.544 84.2131 148.555 83.3043 146.012 81.6017C143.47 79.899 141.488 77.479 140.318 74.6476C139.148 71.8163 138.842 68.7007 139.438 65.6949C140.035 62.6891 141.507 59.9282 143.669 57.7611C145.831 55.5941 148.586 54.1183 151.585 53.5204C154.584 52.9225 157.693 53.2294 160.518 54.4022C163.343 55.575 165.757 57.561 167.456 60.1092C169.155 62.6574 170.061 65.6532 170.061 68.7179C170.057 72.826 168.426 76.7646 165.528 79.6695C162.63 82.5744 158.7 84.2084 154.601 84.2131ZM154.601 54.5701C151.809 54.5701 149.08 55.3998 146.759 56.9544C144.438 58.509 142.628 60.7186 141.56 63.3038C140.492 65.8889 140.212 68.7336 140.757 71.478C141.301 74.2224 142.646 76.7433 144.62 78.7219C146.594 80.7005 149.109 82.0479 151.847 82.5938C154.586 83.1397 157.424 82.8595 160.003 81.7887C162.582 80.7179 164.787 78.9046 166.338 76.578C167.889 74.2514 168.717 71.516 168.717 68.7179C168.713 64.9669 167.224 61.3709 164.578 58.7185C161.932 56.0662 158.344 54.5743 154.601 54.5701Z" fill="#3F3D56"/>
<path d="M154.265 73.4337C153.998 73.4337 153.741 73.3272 153.552 73.1377L147.839 67.4112C147.745 67.3174 147.67 67.206 147.619 67.0833C147.568 66.9606 147.542 66.829 147.542 66.6961C147.542 66.5632 147.568 66.4316 147.618 66.3088C147.669 66.1859 147.743 66.0743 147.837 65.9804C147.931 65.8864 148.042 65.8119 148.165 65.7611C148.287 65.7103 148.419 65.6842 148.551 65.6844C148.684 65.6846 148.815 65.711 148.938 65.7621C149.06 65.8132 149.171 65.888 149.265 65.9822L154.265 70.9942L164.209 61.0275C164.398 60.8386 164.655 60.7326 164.922 60.7329C165.189 60.7332 165.445 60.8396 165.634 61.0288C165.822 61.2181 165.929 61.4747 165.929 61.7424C165.929 62.01 165.823 62.2668 165.635 62.4564L154.978 73.1377C154.789 73.3272 154.533 73.4337 154.265 73.4337Z" fill="white"/>
<path d="M293.743 87.2447C290.751 87.2447 287.827 86.3557 285.34 84.69C282.853 83.0244 280.914 80.657 279.77 77.8872C278.625 75.1174 278.326 72.0695 278.909 69.1291C279.493 66.1887 280.933 63.4877 283.048 61.3678C285.163 59.2478 287.858 57.8041 290.792 57.2193C293.726 56.6344 296.767 56.9345 299.53 58.0818C302.294 59.2291 304.656 61.172 306.318 63.6648C307.98 66.1576 308.867 69.0883 308.867 72.0863C308.862 76.1052 307.267 79.9582 304.432 82.7999C301.597 85.6417 297.752 87.2402 293.743 87.2447Z" fill="#C4CCFF"/>
<path d="M290.382 84.2131C287.324 84.2131 284.335 83.3043 281.792 81.6017C279.25 79.899 277.268 77.479 276.098 74.6476C274.928 71.8163 274.622 68.7007 275.219 65.6949C275.815 62.6891 277.287 59.9282 279.45 57.7611C281.612 55.5941 284.367 54.1183 287.366 53.5204C290.364 52.9225 293.473 53.2294 296.298 54.4022C299.123 55.575 301.537 57.561 303.236 60.1092C304.935 62.6574 305.842 65.6532 305.842 68.7179C305.837 72.826 304.207 76.7646 301.308 79.6695C298.41 82.5744 294.48 84.2084 290.382 84.2131ZM290.382 54.5701C287.59 54.5701 284.861 55.3998 282.539 56.9544C280.218 58.509 278.409 60.7186 277.34 63.3038C276.272 65.8889 275.992 68.7336 276.537 71.478C277.082 74.2224 278.426 76.7433 280.4 78.7219C282.374 80.7005 284.89 82.0479 287.628 82.5938C290.366 83.1397 293.204 82.8595 295.783 81.7887C298.363 80.7179 300.567 78.9046 302.118 76.578C303.67 74.2514 304.497 71.516 304.497 68.7179C304.493 64.9669 303.005 61.3709 300.358 58.7185C297.712 56.0662 294.124 54.5743 290.382 54.5701Z" fill="#3F3D56"/>
<path d="M290.046 73.4337C289.778 73.4337 289.522 73.3272 289.333 73.1377L283.619 67.4112C283.525 67.3174 283.45 67.206 283.399 67.0833C283.348 66.9606 283.322 66.829 283.322 66.6961C283.322 66.5632 283.348 66.4316 283.399 66.3088C283.449 66.1859 283.524 66.0743 283.617 65.9804C283.711 65.8864 283.822 65.8119 283.945 65.7611C284.068 65.7103 284.199 65.6843 284.332 65.6844C284.464 65.6846 284.595 65.711 284.718 65.7621C284.84 65.8132 284.951 65.888 285.045 65.9822L290.046 70.9942L299.99 61.0275C300.083 60.9333 300.194 60.8586 300.317 60.8076C300.439 60.7566 300.57 60.7302 300.703 60.7301C300.835 60.73 300.967 60.756 301.089 60.8068C301.212 60.8576 301.323 60.9321 301.417 61.0261C301.51 61.12 301.585 61.2316 301.635 61.3543C301.686 61.4771 301.712 61.6087 301.712 61.7415C301.712 61.8744 301.686 62.0059 301.635 62.1286C301.584 62.2513 301.509 62.3627 301.415 62.4565L290.758 73.1377C290.569 73.3272 290.313 73.4337 290.046 73.4337Z" fill="white"/>
<path d="M428.851 87.2447C425.859 87.2447 422.935 86.3557 420.448 84.69C417.961 83.0244 416.022 80.657 414.878 77.8872C413.733 75.1174 413.434 72.0695 414.017 69.1291C414.601 66.1887 416.041 63.4877 418.156 61.3678C420.271 59.2478 422.966 57.8041 425.9 57.2193C428.834 56.6344 431.875 56.9345 434.638 58.0818C437.402 59.2291 439.764 61.172 441.426 63.6648C443.088 66.1576 443.975 69.0883 443.975 72.0863C443.97 76.1052 442.375 79.9582 439.54 82.7999C436.705 85.6417 432.86 87.2402 428.851 87.2447Z" fill="#F0F0F0"/>
<path d="M425.49 84.2131C422.432 84.2131 419.443 83.3043 416.901 81.6017C414.358 79.899 412.377 77.479 411.206 74.6476C410.036 71.8163 409.73 68.7007 410.327 65.6949C410.923 62.6891 412.396 59.9282 414.558 57.7611C416.72 55.5941 419.475 54.1183 422.474 53.5204C425.473 52.9225 428.581 53.2294 431.406 54.4022C434.231 55.575 436.646 57.561 438.344 60.1092C440.043 62.6574 440.95 65.6532 440.95 68.7179C440.945 72.826 439.315 76.7646 436.417 79.6695C433.518 82.5744 429.589 84.2084 425.49 84.2131ZM425.49 54.5701C422.698 54.5701 419.969 55.3998 417.647 56.9544C415.326 58.509 413.517 60.7186 412.448 63.3038C411.38 65.8889 411.101 68.7336 411.645 71.478C412.19 74.2224 413.534 76.7433 415.508 78.7219C417.482 80.7005 419.998 82.0479 422.736 82.5938C425.474 83.1397 428.312 82.8595 430.892 81.7887C433.471 80.7179 435.675 78.9046 437.227 76.578C438.778 74.2514 439.605 71.516 439.605 68.7179C439.601 64.9669 438.113 61.3709 435.466 58.7185C432.82 56.0662 429.232 54.5743 425.49 54.5701Z" fill="#CACACA"/>
<path d="M415.788 147.215C412.797 147.215 409.873 146.326 407.386 144.66C404.898 142.995 402.96 140.627 401.815 137.858C400.671 135.088 400.371 132.04 400.955 129.099C401.538 126.159 402.979 123.458 405.094 121.338C407.209 119.218 409.904 117.774 412.838 117.19C415.771 116.605 418.812 116.905 421.576 118.052C424.339 119.199 426.701 121.142 428.363 123.635C430.025 126.128 430.912 129.059 430.912 132.057C430.908 136.076 429.313 139.928 426.477 142.77C423.642 145.612 419.798 147.21 415.788 147.215Z" fill="#C4CCFF"/>
<path d="M414.78 136.773C414.512 136.773 414.256 136.666 414.067 136.477L408.353 130.75C408.164 130.561 408.058 130.304 408.058 130.036C408.058 129.768 408.164 129.511 408.353 129.321C408.542 129.132 408.799 129.025 409.066 129.025C409.334 129.025 409.59 129.132 409.779 129.321L414.78 134.333L424.724 124.366C424.913 124.177 425.169 124.072 425.436 124.072C425.703 124.072 425.959 124.178 426.148 124.368C426.337 124.557 426.443 124.814 426.443 125.081C426.444 125.349 426.338 125.606 426.15 125.795L415.493 136.477C415.304 136.666 415.047 136.773 414.78 136.773Z" fill="white"/>
<path d="M449.56 342.696L441.416 341.434L442.398 309.35L454.418 311.212L449.56 342.696Z" fill="#9E616A"/>
<path d="M450.416 350.93L424.157 346.86L424.208 346.527C424.627 343.81 426.106 341.372 428.319 339.748C430.532 338.124 433.299 337.447 436.009 337.867L452.049 340.353L450.416 350.93Z" fill="#2F2E41"/>
<path d="M535.153 341.888L526.92 342.239L521.649 310.577L533.801 310.058L535.153 341.888Z" fill="#9E616A"/>
<path d="M537.593 349.797L511.046 350.93L511.031 350.594C510.915 347.847 511.891 345.166 513.746 343.141C515.602 341.116 518.183 339.913 520.924 339.796L537.139 339.104L537.593 349.797Z" fill="#2F2E41"/>
<path d="M518.943 153.129C519.332 153.02 519.729 152.945 520.131 152.907L514.998 110.8L497.583 73.8354C496.487 71.5101 496.312 68.8548 497.093 66.4052C497.874 63.9556 499.552 61.8939 501.79 60.636C504.028 59.378 506.659 59.0174 509.151 59.6269C511.644 60.2364 513.813 61.7706 515.222 63.9201C519.786 70.8855 523.239 78.5219 525.455 86.5538L532.772 113.069L527.422 158.539C527.627 159.82 527.458 161.134 526.936 162.322C526.414 163.51 525.56 164.521 524.478 165.234C523.396 165.947 522.131 166.331 520.836 166.341C519.541 166.35 518.271 165.984 517.178 165.287C516.086 164.59 515.218 163.592 514.678 162.412C514.138 161.232 513.951 159.921 514.137 158.636C514.323 157.352 514.876 156.148 515.729 155.171C516.582 154.194 517.698 153.485 518.943 153.129Z" fill="#9E616A"/>
<path d="M493.48 73.7573C492.221 70.3253 492.351 66.5363 493.841 63.1988C495.331 59.8613 498.064 57.2396 501.455 55.8933C504.847 54.547 508.63 54.5826 511.996 55.9925C515.362 57.4025 518.045 60.0751 519.472 63.4401L530.372 89.1364L508.369 114.364L493.48 73.7573Z" fill="#2F2E41"/>
<path d="M476.575 78.1497L491.363 53.2226C501.578 46.5284 509.983 50.9055 514.463 62.284C518.367 72.1982 521.397 84.7408 519.595 97.6871C515.557 126.687 512.201 130.025 512.201 130.025C512.201 130.025 537.408 157.984 532.03 193.69L536.063 328.431L523.964 327.757L507.159 250.281L494.388 201.774L472.206 261.06L452.713 329.778L439.269 327.083L447.336 250.955L458.763 163.373L471.87 130.025L465.484 106.782C465.484 106.782 458.09 90.6132 476.575 78.1497Z" fill="#2F2E41"/>
<path d="M427.435 113.751C427.706 114.05 427.95 114.374 428.164 114.717L463.455 91.3011L488.669 59.1692C490.255 57.1478 492.547 55.8045 495.082 55.4101C497.617 55.0158 500.208 55.5997 502.33 57.0442C504.453 58.4886 505.95 60.6862 506.52 63.1935C507.09 65.7008 506.69 68.3314 505.4 70.5547C501.222 77.7597 495.949 84.2676 489.77 89.8438L469.372 108.251L426.394 123.77C425.342 124.527 424.094 124.963 422.801 125.025C421.507 125.088 420.223 124.774 419.103 124.122C417.983 123.47 417.075 122.508 416.488 121.351C415.901 120.194 415.66 118.892 415.794 117.601C415.928 116.31 416.431 115.085 417.243 114.074C418.055 113.063 419.142 112.309 420.372 111.902C421.602 111.495 422.922 111.453 424.175 111.781C425.428 112.109 426.56 112.793 427.435 113.751Z" fill="#9E616A"/>
<path d="M486.905 55.4552C489.406 52.7933 492.846 51.2165 496.491 51.0613C500.136 50.9062 503.697 52.1849 506.414 54.6247C509.131 57.0644 510.79 60.472 511.035 64.1201C511.281 67.7683 510.094 71.3681 507.728 74.1513L489.661 95.4064L457.312 86.9492L486.905 55.4552Z" fill="#2F2E41"/>
<path d="M498.912 41.9066C508.596 36.6009 512.155 24.4317 506.862 14.7259C501.568 5.02002 489.426 1.453 479.742 6.75868C470.058 12.0644 466.499 24.2336 471.793 33.9394C477.087 43.6453 489.229 47.2123 498.912 41.9066Z" fill="#9E616A"/>
<path d="M485.986 3.92301e-10H498.894C507.357 3.92301e-10 514.217 7.73543 514.217 17.2776L513.62 40.4223C504.476 41.5624 495.532 43.9599 487.041 47.5472L485.837 42.3903L483.46 49.1818C481.346 50.2082 479.25 51.3306 477.173 52.5489C479.598 41.1289 480.596 29.7354 478.931 20.8848H474.559V16.0893L473.075 20.8848H465.148C465.148 18.1422 465.687 15.4264 466.734 12.8925C467.782 10.3586 469.316 8.05632 471.251 6.11698C473.186 4.17764 475.484 2.63928 478.012 1.58973C480.54 0.540174 483.249 -1.68095e-05 485.986 3.92301e-10Z" fill="#2F2E41"/>
<path d="M616.328 351H360.227C360.049 351 359.878 350.929 359.752 350.803C359.626 350.676 359.555 350.505 359.555 350.326C359.555 350.148 359.626 349.976 359.752 349.85C359.878 349.724 360.049 349.653 360.227 349.653H616.328C616.506 349.653 616.677 349.724 616.803 349.85C616.929 349.976 617 350.148 617 350.326C617 350.505 616.929 350.676 616.803 350.803C616.677 350.929 616.506 351 616.328 351Z" fill="#CACACA"/>
<path d="M154.601 160.342C154.423 160.342 154.252 160.271 154.126 160.144C154 160.018 153.929 159.847 153.929 159.668V84.213C153.929 84.0343 154 83.863 154.126 83.7366C154.252 83.6103 154.423 83.5393 154.601 83.5393C154.78 83.5393 154.951 83.6103 155.077 83.7366C155.203 83.863 155.273 84.0343 155.273 84.213V159.668C155.273 159.847 155.203 160.018 155.077 160.144C154.951 160.271 154.78 160.342 154.601 160.342Z" fill="#3F3D56"/>
<path d="M107.188 172.051C106.057 172.051 104.972 172.501 104.172 173.303C103.372 174.105 102.923 175.192 102.923 176.326C102.923 177.46 103.372 178.547 104.172 179.349C104.972 180.15 106.057 180.601 107.188 180.601H202.032C203.162 180.599 204.245 180.148 205.044 179.346C205.842 178.545 206.29 177.458 206.29 176.326C206.29 175.193 205.842 174.107 205.044 173.305C204.245 172.504 203.162 172.053 202.032 172.051H107.188Z" fill="#E4E4E4"/>
<path d="M132.619 192.312C132.059 192.31 131.504 192.42 130.986 192.634C130.469 192.847 129.998 193.161 129.601 193.557C129.204 193.954 128.889 194.424 128.673 194.942C128.458 195.461 128.346 196.016 128.345 196.578C128.344 197.139 128.453 197.695 128.666 198.214C128.88 198.734 129.193 199.206 129.588 199.603C129.983 200.001 130.453 200.317 130.97 200.533C131.487 200.749 132.041 200.861 132.601 200.862H176.601C177.732 200.862 178.817 200.411 179.617 199.61C180.417 198.808 180.867 197.721 180.867 196.587C180.867 195.453 180.417 194.366 179.617 193.564C178.817 192.762 177.732 192.312 176.601 192.312H132.619Z" fill="#E4E4E4"/>
<path d="M244.985 172.051C243.854 172.051 242.769 172.501 241.969 173.303C241.169 174.105 240.72 175.192 240.72 176.326C240.72 177.46 241.169 178.547 241.969 179.349C242.769 180.15 243.854 180.601 244.985 180.601H339.829C340.959 180.599 342.042 180.148 342.84 179.346C343.639 178.545 344.087 177.458 344.087 176.326C344.087 175.193 343.639 174.107 342.84 173.305C342.042 172.504 340.959 172.053 339.829 172.051H244.985Z" fill="#E4E4E4"/>
<path d="M270.416 192.312C269.856 192.31 269.301 192.42 268.783 192.634C268.265 192.847 267.794 193.161 267.398 193.557C267.001 193.954 266.685 194.424 266.47 194.942C266.255 195.461 266.143 196.016 266.142 196.578C266.141 197.139 266.25 197.695 266.463 198.214C266.676 198.734 266.99 199.206 267.385 199.603C267.78 200.001 268.25 200.317 268.767 200.533C269.284 200.749 269.838 200.861 270.398 200.862H314.398C315.529 200.862 316.614 200.411 317.414 199.61C318.214 198.808 318.663 197.721 318.663 196.587C318.663 195.453 318.214 194.366 317.414 193.564C316.614 192.762 315.529 192.312 314.398 192.312H270.416Z" fill="#E4E4E4"/>
<path d="M292.398 160.342C292.22 160.342 292.049 160.271 291.923 160.144C291.797 160.018 291.726 159.847 291.726 159.668V84.213C291.726 84.0343 291.797 83.863 291.923 83.7366C292.049 83.6103 292.22 83.5393 292.398 83.5393C292.576 83.5393 292.747 83.6103 292.873 83.7366C292.999 83.863 293.07 84.0343 293.07 84.213V159.668C293.07 159.847 292.999 160.018 292.873 160.144C292.747 160.271 292.576 160.342 292.398 160.342Z" fill="#3F3D56"/>
</g>
<defs>
<clipPath id="clip0_10_205">
<rect width="617" height="351" fill="white"/>
</clipPath>
</defs>
</svg>
