<svg width="599" height="440" viewBox="0 0 599 440" fill="none" xmlns="http://www.w3.org/2000/svg">
<g clip-path="url(#clip0_10_279)">
<path d="M566.168 440L566.85 438.738C557.704 433.788 546.32 427.628 540.375 417.518C534.513 407.553 534.382 394.02 540.031 382.201C544.839 372.143 553.671 363.131 565.571 356.141C567.918 354.762 570.382 353.455 572.765 352.191C578.525 349.136 584.482 345.977 589.393 341.496C596.157 335.323 601.275 324.965 597.46 315.738C596.206 312.793 594.151 310.259 591.53 308.424C588.909 306.588 585.826 305.525 582.631 305.355L582.55 306.788C585.477 306.944 588.301 307.917 590.703 309.598C593.105 311.278 594.988 313.599 596.139 316.296C599.684 324.87 594.82 334.6 588.426 340.435C583.649 344.794 577.775 347.91 572.094 350.923C569.697 352.194 567.219 353.508 564.845 354.903C552.697 362.039 543.669 371.264 538.737 381.582C532.885 393.825 533.039 407.875 539.138 418.246C545.287 428.7 556.865 434.966 566.168 440Z" fill="#F1F1F1"/>
<path d="M573.54 312.92C580.472 312.92 586.091 310.189 586.091 306.82C586.091 303.451 580.472 300.72 573.54 300.72C566.608 300.72 560.989 303.451 560.989 306.82C560.989 310.189 566.608 312.92 573.54 312.92Z" fill="#F1F1F1"/>
<path d="M563.499 353.11C570.431 353.11 576.05 350.378 576.05 347.009C576.05 343.64 570.431 340.909 563.499 340.909C556.568 340.909 550.949 343.64 550.949 347.009C550.949 350.378 556.568 353.11 563.499 353.11Z" fill="#F1F1F1"/>
<path d="M586.449 359.568C593.381 359.568 599 356.837 599 353.468C599 350.099 593.381 347.368 586.449 347.368C579.518 347.368 573.899 350.099 573.899 353.468C573.899 356.837 579.518 359.568 586.449 359.568Z" fill="#F1F1F1"/>
<path d="M550.59 393.299C557.522 393.299 563.141 390.568 563.141 387.199C563.141 383.83 557.522 381.099 550.59 381.099C543.659 381.099 538.04 383.83 538.04 387.199C538.04 390.568 543.659 393.299 550.59 393.299Z" fill="#F1F1F1"/>
<path d="M525.489 393.299C532.42 393.299 538.04 390.568 538.04 387.199C538.04 383.83 532.42 381.099 525.489 381.099C518.557 381.099 512.938 383.83 512.938 387.199C512.938 390.568 518.557 393.299 525.489 393.299Z" fill="#F1F1F1"/>
<path d="M98.4592 315.403H53.926C52.7201 315.401 51.5639 314.921 50.7112 314.068C49.8585 313.215 49.3788 312.058 49.3773 310.851V164.018C49.3788 162.812 49.8585 161.655 50.7112 160.801C51.5639 159.948 52.7201 159.468 53.926 159.467H98.4592C99.6651 159.468 100.821 159.948 101.674 160.801C102.527 161.655 103.006 162.812 103.008 164.018V310.851C103.006 312.058 102.527 313.215 101.674 314.068C100.821 314.921 99.6651 315.401 98.4592 315.403Z" fill="#C4CCFF"/>
<path d="M179.671 315.403H135.138C133.932 315.401 132.776 314.921 131.923 314.068C131.07 313.215 130.591 312.058 130.589 310.851V105.752C130.591 104.545 131.07 103.388 131.923 102.535C132.776 101.681 133.932 101.202 135.138 101.2H179.671C180.877 101.202 182.033 101.681 182.886 102.535C183.739 103.388 184.218 104.545 184.22 105.752V310.851C184.218 312.058 183.739 313.215 182.886 314.068C182.033 314.921 180.877 315.401 179.671 315.403Z" fill="#C4CCFF"/>
<path d="M260.883 315.403H216.35C215.144 315.401 213.988 314.921 213.135 314.068C212.282 313.215 211.803 312.058 211.801 310.851V164.018C211.803 162.812 212.282 161.655 213.135 160.801C213.988 159.948 215.144 159.468 216.35 159.467H260.883C262.089 159.468 263.245 159.948 264.098 160.801C264.951 161.655 265.43 162.812 265.432 164.018V310.851C265.43 312.058 264.951 313.215 264.098 314.068C263.245 314.921 262.089 315.401 260.883 315.403Z" fill="#C4CCFF"/>
<path d="M342.095 315.403H297.562C296.383 315.428 295.243 314.985 294.39 314.171C293.538 313.356 293.043 312.237 293.013 311.058V82.5453C293.043 81.3661 293.538 80.2467 294.39 79.4323C295.243 78.6178 296.383 78.1748 297.562 78.2001H342.095C343.273 78.1748 344.414 78.6178 345.267 79.4323C346.119 80.2467 346.614 81.3661 346.644 82.5453V311.058C346.614 312.237 346.119 313.356 345.267 314.171C344.414 314.985 343.273 315.428 342.095 315.403Z" fill="#C4CCFF"/>
<path d="M423.307 315.403H378.774C377.568 315.401 376.412 314.921 375.559 314.068C374.706 313.215 374.227 312.058 374.225 310.851V41.3514C374.227 40.1447 374.706 38.9878 375.559 38.1346C376.412 37.2813 377.568 36.8014 378.774 36.8H423.307C424.513 36.8014 425.669 37.2813 426.522 38.1346C427.375 38.9878 427.854 40.1447 427.856 41.3514V310.851C427.854 312.058 427.375 313.215 426.522 314.068C425.669 314.921 424.513 315.401 423.307 315.403Z" fill="#C4CCFF"/>
<path d="M76.1926 141.067C81.2702 141.067 85.3864 136.948 85.3864 131.867C85.3864 126.786 81.2702 122.667 76.1926 122.667C71.115 122.667 66.9988 126.786 66.9988 131.867C66.9988 136.948 71.115 141.067 76.1926 141.067Z" fill="#3F3D56"/>
<path d="M157.405 81.2667C162.482 81.2667 166.598 77.1477 166.598 72.0667C166.598 66.9857 162.482 62.8667 157.405 62.8667C152.327 62.8667 148.211 66.9857 148.211 72.0667C148.211 77.1477 152.327 81.2667 157.405 81.2667Z" fill="#3F3D56"/>
<path d="M238.616 141.067C243.694 141.067 247.81 136.948 247.81 131.867C247.81 126.786 243.694 122.667 238.616 122.667C233.539 122.667 229.423 126.786 229.423 131.867C229.423 136.948 233.539 141.067 238.616 141.067Z" fill="#3F3D56"/>
<path d="M319.828 52.1334C324.906 52.1334 329.022 48.0144 329.022 42.9334C329.022 37.8524 324.906 33.7334 319.828 33.7334C314.751 33.7334 310.635 37.8524 310.635 42.9334C310.635 48.0144 314.751 52.1334 319.828 52.1334Z" fill="#3F3D56"/>
<path d="M401.04 18.4C406.118 18.4 410.234 14.281 410.234 9.20002C410.234 4.11899 406.118 0 401.04 0C395.963 0 391.847 4.11899 391.847 9.20002C391.847 14.281 395.963 18.4 401.04 18.4Z" fill="#3F3D56"/>
<path d="M475.492 317.111H0.717182C0.526974 317.111 0.344555 317.036 0.210057 316.901C0.0755595 316.767 0 316.584 0 316.394C0 316.203 0.0755595 316.021 0.210057 315.886C0.344555 315.752 0.526974 315.676 0.717182 315.676H475.492C475.682 315.676 475.864 315.752 475.999 315.886C476.133 316.021 476.209 316.203 476.209 316.394C476.209 316.584 476.133 316.767 475.999 316.901C475.864 317.036 475.682 317.111 475.492 317.111Z" fill="#CBCBCB"/>
<path d="M593.827 439.832H361.46C361.27 439.832 361.087 439.757 360.953 439.622C360.818 439.488 360.743 439.305 360.743 439.115C360.743 438.924 360.818 438.742 360.953 438.607C361.087 438.473 361.27 438.397 361.46 438.397H593.827C594.017 438.397 594.199 438.473 594.334 438.607C594.468 438.742 594.544 438.924 594.544 439.115C594.544 439.305 594.468 439.488 594.334 439.622C594.199 439.757 594.017 439.832 593.827 439.832Z" fill="#CBCBCB"/>
<path d="M444.607 305.446C445.196 304.86 445.65 304.151 445.937 303.37C446.223 302.589 446.335 301.755 446.264 300.926C446.193 300.097 445.942 299.293 445.527 298.572C445.113 297.851 444.545 297.229 443.865 296.752L446.684 284.056L439.393 280.46L435.662 298.444C434.936 299.641 434.673 301.064 434.925 302.442C435.176 303.82 435.924 305.058 437.026 305.921C438.129 306.784 439.509 307.212 440.906 307.125C442.304 307.037 443.62 306.44 444.607 305.446Z" fill="#FFB7B7"/>
<path d="M524.345 305.725C524.888 305.094 525.286 304.353 525.511 303.552C525.736 302.751 525.783 301.91 525.649 301.089C525.514 300.268 525.201 299.487 524.732 298.8C524.263 298.113 523.649 297.537 522.934 297.113L524.763 284.238L517.215 281.217L514.887 299.436C514.255 300.686 514.103 302.124 514.46 303.479C514.817 304.833 515.659 306.009 516.825 306.784C517.991 307.56 519.4 307.88 520.786 307.685C522.172 307.489 523.439 306.792 524.345 305.725Z" fill="#FFB7B7"/>
<path d="M467.504 432.091L460.068 432.091L456.531 403.391L467.505 403.392L467.504 432.091Z" fill="#FFB7B7"/>
<path d="M469.4 439.304L445.425 439.303V438.999C445.425 436.523 446.408 434.148 448.158 432.396C449.908 430.645 452.282 429.661 454.757 429.661L469.401 429.662L469.4 439.304Z" fill="#2F2E41"/>
<path d="M492.371 432.091L484.935 432.091L481.398 403.391L492.372 403.392L492.371 432.091Z" fill="#FFB7B7"/>
<path d="M494.267 439.304L470.291 439.303V438.999C470.292 436.523 471.275 434.148 473.025 432.396C474.775 430.645 477.148 429.661 479.623 429.661L494.267 429.662L494.267 439.304Z" fill="#2F2E41"/>
<path d="M507.342 190.634L515.36 187.739C515.36 187.739 518.763 188.462 518.763 197.697C518.763 206.932 527.801 293.062 527.801 293.062L511.984 297.229L503.044 215.514L507.342 190.634Z" fill="#2F2E41"/>
<path d="M453.764 190.634L445.746 187.739C445.746 187.739 442.343 188.462 442.343 197.697C442.343 206.932 433.305 293.062 433.305 293.062L449.122 297.229L458.062 215.514L453.764 190.634Z" fill="#2F2E41"/>
<path d="M453.867 288.866L451.675 353.565L456.527 425.133L469.029 425.422L470.849 358.661L481.159 325.281L480.119 423.667L494.276 423.498L503.044 355.809C503.044 355.809 514.623 299.79 508.202 288.866L478.631 279.026L453.867 288.866Z" fill="#2F2E41"/>
<path d="M454.108 281.07L453.394 296.634C453.394 296.634 463.371 301.602 480.908 298.575C498.445 295.549 510.102 297.544 510.102 297.544L508.756 277.704L454.108 281.07Z" fill="#E5E5E5"/>
<path d="M445.427 187.968L468.487 177.857L469.863 172.561L492.296 173.211L493.265 178.621L515.36 187.739L505.625 221.61L506.624 245.438L518.763 288.866C518.763 288.866 508.524 297.567 483.925 293.824L479.68 285.265L477.084 294.316C477.084 294.316 455.513 302.257 449.534 291.92L453.867 217.25L445.427 187.968Z" fill="#2F2E41"/>
<path d="M480.875 167.585C489.102 167.585 495.772 160.912 495.772 152.679C495.772 144.446 489.102 137.772 480.875 137.772C472.648 137.772 465.979 144.446 465.979 152.679C465.979 160.912 472.648 167.585 480.875 167.585Z" fill="#FFB7B7"/>
<path d="M498.575 146.903C498.309 145.69 497.797 144.544 497.07 143.537C496.78 140.752 495.852 138.072 494.357 135.705C493.772 134.596 492.94 133.636 491.927 132.898C490.766 132.229 489.441 131.898 488.103 131.944C487.86 131.94 487.423 132.013 487.03 132.031C486.778 131.953 486.525 131.884 486.27 131.818C486.121 131.488 485.827 130.524 485.745 130.589L484.635 131.472C484.166 131.39 483.695 131.326 483.221 131.276C483.049 130.784 482.877 130.292 482.704 129.8C482.425 130.24 482.18 130.701 481.971 131.179C481.5 131.156 481.029 131.148 480.557 131.155L479.614 130.248C479.558 130.501 479.43 130.732 479.245 130.913C479.061 131.095 478.827 131.218 478.573 131.268C478.139 131.313 477.707 131.371 477.276 131.44C477.241 131.44 477.206 131.44 477.171 131.439C474.849 131.381 472.349 131.277 470.407 132.553C469.499 133.178 468.759 134.018 468.254 134.999C468.016 135.16 467.778 135.321 467.547 135.492C466.768 136.024 466.093 136.694 465.555 137.469C465.164 138.137 464.867 138.856 464.673 139.606C463.932 141.863 463.589 144.232 463.658 146.606C463.738 148.997 464.639 151.287 466.21 153.09C467.207 154.161 468.473 154.951 469.47 156.021C471.524 158.224 471.909 161.296 473.666 163.626C475.524 166.091 478.915 167.713 481.893 168.178C483.684 168.448 485.51 168.362 487.267 167.923C489.024 167.485 490.677 166.703 492.131 165.623C492.829 165.137 493.422 164.515 493.874 163.794C494.908 162.005 494.47 159.756 494.854 157.726C495.573 153.919 499.203 150.725 498.575 146.903Z" fill="#2F2E41"/>
<path d="M75.7021 132.442L74.8458 131.291L157.405 69.7852L238.354 130.206L320.411 41.0541L320.558 40.9938L400.194 8.10388L400.741 9.43085L321.252 42.2598L238.533 132.13L157.404 71.575L75.7021 132.442Z" fill="#3F3D56"/>
</g>
<defs>
<clipPath id="clip0_10_279">
<rect width="599" height="440" fill="white"/>
</clipPath>
</defs>
</svg>
