<svg width="618" height="469" viewBox="0 0 618 469" fill="none" xmlns="http://www.w3.org/2000/svg">
<g clip-path="url(#clip0_11_312)">
<path d="M402.904 192.454C401.554 192.65 400.177 192.546 398.871 192.15C397.565 191.754 396.362 191.076 395.345 190.162C394.329 189.249 393.524 188.123 392.987 186.864C392.451 185.605 392.196 184.244 392.24 182.875L361.283 170.933L375.3 160.868L402.548 173.752C404.835 173.979 406.958 175.041 408.516 176.735C410.075 178.43 410.96 180.639 411.003 182.945C411.047 185.251 410.247 187.492 408.754 189.245C407.261 190.998 405.179 192.14 402.903 192.455L402.904 192.454Z" fill="#FFB7B7"/>
<path d="M385.214 183.888L390.048 166.773L389.81 166.61L344.534 135.737L305.395 96.3169L282.597 105.46L284.094 112.704L284.191 112.793L336.228 159.579L336.276 159.602L385.214 183.888Z" fill="#E6E7E8"/>
<path d="M338.832 222.98L268.761 213.12L274.929 169.961H326.515L338.832 222.98Z" fill="#FFB6B6"/>
<path d="M219.771 434.318L234.145 437.671L253.868 383.615L232.655 378.666L219.771 434.318Z" fill="#FFB6B6"/>
<path d="M206.397 457.547L216.705 459.952L220.806 450.612L223.257 461.48L250.596 467.857C251.906 468.163 253.28 468.041 254.516 467.507C255.752 466.974 256.786 466.058 257.467 464.893C258.147 463.728 258.439 462.375 258.3 461.032C258.16 459.689 257.597 458.426 256.691 457.427L238.363 437.199L240.65 427.323L217.368 423.342L206.397 457.547Z" fill="#2F2E41"/>
<path d="M308.461 442.358H323.217L330.24 385.223H308.461V442.358Z" fill="#FFB6B6"/>
<path d="M300.672 468.023H311.254L313.143 457.994L317.981 468.023H346.049C347.394 468.023 348.704 467.592 349.788 466.792C350.872 465.991 351.672 464.864 352.072 463.575C352.473 462.286 352.452 460.901 352.013 459.625C351.575 458.348 350.741 457.246 349.634 456.478L327.22 440.94V430.801L303.645 432.213L300.672 468.023Z" fill="#2F2E41"/>
<path d="M267.875 205.797L336.401 200.326C356.622 247.742 343.765 323.436 328.225 408.645L306.184 411.506L304.474 274.584L249.221 401.962L226.25 400.784L267.875 205.797Z" fill="#2F2E41"/>
<path d="M307.763 80.9378V57.6664C307.765 53.57 306.963 49.5134 305.403 45.7282C303.843 41.9431 301.555 38.5036 298.67 35.6064C295.785 32.7091 292.36 30.4107 288.59 28.8426C284.82 27.2746 280.779 26.4675 276.698 26.4675C272.617 26.4675 268.576 27.2746 264.806 28.8426C261.036 30.4107 257.611 32.7091 254.726 35.6064C251.841 38.5036 249.553 41.9431 247.993 45.7282C246.433 49.5134 245.631 53.57 245.633 57.6664C240.158 69.1192 243.583 74.5642 245.633 80.9378C245.635 82.0477 246.075 83.1116 246.857 83.8963C247.639 84.6811 248.698 85.1228 249.804 85.1247H303.59C304.696 85.1234 305.756 84.6819 306.539 83.897C307.321 83.1122 307.761 82.048 307.763 80.9378Z" fill="#2F2E41"/>
<path d="M284.364 84.7738C296.943 84.7738 307.14 74.5378 307.14 61.911C307.14 49.2843 296.943 39.0483 284.364 39.0483C271.785 39.0483 261.588 49.2843 261.588 61.911C261.588 74.5378 271.785 84.7738 284.364 84.7738Z" fill="#FFB7B7"/>
<path d="M315.112 59.5275C315.105 52.9876 312.513 46.7177 307.907 42.0934C303.3 37.469 297.054 34.8678 290.538 34.8604H285.902C279.387 34.8678 273.14 37.469 268.534 42.0934C263.927 46.7178 261.335 52.9876 261.328 59.5275V59.9931C264.801 62.3762 268.097 62.7247 271.127 59.9931L274.469 50.5993L275.137 59.993H280.202L281.89 55.2538L282.228 59.9931C289.069 65.8413 302.005 63.0388 315.112 59.9931L315.112 59.5275Z" fill="#2F2E41"/>
<path d="M271.083 182.576L329.073 180.361L332.315 142.279C334.814 135.309 334.855 129.32 332.435 124.491C330.353 120.522 326.856 117.487 322.642 115.994L309.953 100.61C308.32 98.6332 306.271 97.0446 303.952 95.9595C301.634 94.8744 299.104 94.3199 296.546 94.336L263.574 94.5623C262.78 94.0828 257.959 91.6235 248.452 95.7586C238.141 100.245 240.535 115.83 240.561 115.986L240.585 116.133L240.698 116.233L262.628 134.775L271.083 182.576Z" fill="#E6E7E8"/>
<path d="M424.927 237.849C424.884 260.034 416.574 281.4 401.633 297.747C386.692 314.094 366.199 324.239 344.184 326.188C322.169 328.137 300.224 321.749 282.663 308.279C265.102 294.81 253.195 275.233 249.285 253.399C245.374 231.564 249.741 209.051 261.528 190.285C273.315 171.518 291.669 157.857 312.982 151.986C334.295 146.115 357.025 148.46 376.703 158.559C396.381 168.657 411.584 185.78 419.323 206.56C419.516 207.082 419.704 207.604 419.887 208.13V208.135C420.704 210.451 421.423 212.81 422.046 215.212C423.965 222.604 424.933 230.211 424.927 237.849Z" fill="#3F3D56"/>
<path d="M326.061 177.495C322.056 175.321 317.609 174.094 313.06 173.907C308.511 173.72 303.979 174.579 299.811 176.417C296.141 178.02 292.276 180.897 291.052 186.09C296.004 183.157 302.414 187.792 303.688 195.227L303.391 195.31C302.718 200.46 304.22 206.067 307.129 209.26C307.345 207.819 307.878 206.445 308.69 205.236C309.501 204.028 310.571 203.017 311.82 202.275C313.958 200.865 316.322 199.841 317.953 197.417C319.887 194.543 320.378 190.343 321.146 186.512C321.914 182.681 323.371 178.563 326.061 177.495Z" fill="#C4CCFF"/>
<path d="M298.342 221.32C296.971 223.387 295.139 224.685 293.495 226.3C291.598 228.032 290.353 230.368 289.97 232.914C289.762 234.714 290.084 236.542 290.039 238.361C289.995 240.18 289.391 242.228 288.158 242.68C286.212 243.386 284.727 239.758 282.727 239.504C281.138 239.306 279.707 241.815 280.167 243.992C280.628 246.169 282.791 247.133 284.034 245.712C285.158 247.605 284.366 251.039 282.678 251.621C282.499 252.813 282.321 254.001 282.148 255.194C277.88 252.197 273.568 249.151 269.939 244.762C265.903 239.923 263.399 233.984 262.75 227.706C262.28 222.662 262.978 216.892 260.671 213.011C258.824 209.905 255.655 209.219 252.804 209.413C252.284 209.447 251.759 209.507 251.239 209.572C252.921 204.501 255.057 199.594 257.621 194.911C258.201 194.661 258.74 194.324 259.22 193.912C261.874 191.651 263.052 187.074 265.206 183.908C265.344 183.704 265.488 183.505 265.636 183.311C267.84 180.424 270.79 178.938 273.642 177.556C279.954 174.48 286.45 171.364 293.114 171.792L291.218 171.975C289.005 178.198 286.79 184.42 284.574 190.642C284.237 191.596 283.897 192.552 283.554 193.509C282.296 197.048 280.999 200.815 281.192 204.776C281.306 207.121 282.118 209.626 283.663 210.431C285.103 211.177 286.678 210.262 288.069 209.358C288.658 208.98 289.242 208.602 289.831 208.22C291.946 206.853 294.287 205.452 296.52 206.366C298.565 207.201 300.075 209.989 300.362 212.996C300.625 215.918 299.915 218.846 298.342 221.32Z" fill="#C4CCFF"/>
<path d="M310.915 263.8C304.741 259.984 298.567 256.168 292.393 252.352L292.497 252.081C288.658 253.549 287.065 260.398 287.699 266C288.334 271.602 290.485 276.609 291.571 282.067C293.037 289.537 292.484 297.263 289.97 304.446C298.089 295.301 305.274 285.363 311.417 274.779C312.275 273.446 312.929 271.99 313.357 270.461C313.81 268.832 313.649 267.093 312.904 265.575C312.398 264.827 311.715 264.217 310.915 263.8Z" fill="#C4CCFF"/>
<path d="M286.548 194.375C285.823 195.938 285.711 197.717 286.235 199.359C286.844 200.682 287.949 201.709 289.31 202.218L292.721 203.915C293.856 204.48 295.079 205.05 296.236 204.585C297.632 204.025 298.599 201.829 298.349 199.79C298.083 197.621 296.72 196.128 295.46 194.858C293.697 193.079 291.934 191.301 290.171 189.522L289.177 190.744C288.102 191.796 287.213 193.024 286.548 194.375Z" fill="#C4CCFF"/>
<path d="M406.638 217.568C408.173 217.931 409.708 218.294 411.243 218.656C410.975 223.86 408.406 228.675 404.96 230.42C403.524 231.145 401.925 231.414 400.737 232.77C399.663 234.003 399.118 235.921 398.618 237.755C397.742 240.955 396.865 244.156 395.989 247.356C395.048 250.805 393.84 254.637 391.394 255.88C389.295 256.948 386.894 255.641 385.28 253.449C383.666 251.258 382.681 248.311 381.725 245.438C381.785 248.569 380.334 251.64 378.28 252.729C376.22 253.817 373.715 252.833 372.338 250.403C371.348 248.659 370.937 246.358 369.967 244.588C368.997 242.819 366.962 241.805 365.902 243.465C365.204 244.569 365.293 246.258 364.947 247.66C364.772 248.59 364.313 249.443 363.634 250.099C362.954 250.756 362.087 251.183 361.154 251.322C360.296 251.303 359.452 251.108 358.671 250.75C357.891 250.392 357.191 249.878 356.614 249.24C353.583 246.127 351.609 242.131 350.975 237.825C350.546 235.76 350.6 233.623 351.134 231.583C351.743 229.649 353.213 228.159 354.674 228.526C355.634 226.489 353.738 223.785 352.03 224.024C350.317 224.262 348.975 226.106 347.569 227.522C346.168 228.939 344.208 229.967 342.796 228.561C342.828 229.075 342.655 229.581 342.315 229.967C341.974 230.354 341.496 230.588 340.983 230.62C340.932 230.623 340.882 230.624 340.831 230.623C339.893 230.353 339.021 229.889 338.271 229.262C335.038 227.239 330.934 228.581 328.637 232.408C330.073 226.275 332.177 219.238 336.588 217.796C338.39 217.205 340.356 217.692 342.059 216.668C345.074 214.854 345.683 208.001 343.079 205.173C343.41 207.847 343.346 210.968 341.94 212.797C340.534 214.626 337.583 213.433 337.761 210.73C337.721 211.11 337.563 211.468 337.308 211.752C337.053 212.036 336.715 212.231 336.342 212.311C335.969 212.39 335.581 212.349 335.233 212.194C334.885 212.038 334.595 211.776 334.405 211.445C333.469 210.014 333.548 207.673 334.212 205.964C334.896 204.415 335.876 203.017 337.098 201.849C339.45 199.319 341.836 196.76 344.559 195.169C347.287 193.579 350.436 193.042 353.169 194.623C354.61 195.458 355.877 196.849 357.347 197.585C357.693 197.8 358.077 197.945 358.478 198.011C358.88 198.077 359.29 198.063 359.686 197.97C360.082 197.877 360.456 197.706 360.786 197.468C361.116 197.23 361.397 196.929 361.611 196.582C361.628 196.556 361.644 196.528 361.66 196.501C362.754 194.573 362.239 191.71 362.645 189.3C363.373 185.041 367.615 183.048 369.967 185.861C368.21 185.409 366.393 187.496 366.175 190.026C365.952 192.555 367.224 195.11 368.927 195.875C371.789 197.147 374.591 193.947 376.755 190.985C379.012 187.884 381.273 184.784 383.538 181.686C383.899 181.159 384.305 180.664 384.75 180.205C385.46 179.512 386.405 179.114 387.395 179.094C388.385 179.074 389.346 179.432 390.083 180.096C392.37 181.97 393.444 185.811 395.321 188.455C398.044 192.297 402.118 193.231 405.911 193.977C408.738 194.528 411.566 195.083 414.397 195.641C416.283 199.165 417.929 202.813 419.323 206.56C414.133 208.936 409.73 212.756 406.638 217.568Z" fill="#C4CCFF"/>
<path d="M422.046 215.212C421.466 216.928 421.148 218.723 421.105 220.535C418.679 217.563 418.293 211.992 419.887 208.135C420.704 210.451 421.423 212.81 422.046 215.212Z" fill="#C4CCFF"/>
<path d="M415.778 277.364C413.657 281.687 411.19 285.831 408.401 289.753C406.619 288.988 404.703 290.355 403.034 291.637C401.291 292.979 399.197 294.286 397.41 293.063C395.583 291.811 394.994 288.307 395.573 285.529C396.239 282.966 397.403 280.561 398.999 278.452C400.484 276.226 402.074 273.915 404.138 273.05C406.208 272.185 408.866 273.408 409.47 276.36L410.936 276.31C410.114 275.177 410.545 272.831 411.649 272.419C412.921 271.937 414.025 273.691 414.778 275.242C415.114 275.942 415.456 276.648 415.778 277.364Z" fill="#C4CCFF"/>
<path d="M359.651 256.372C356.501 256.571 354.006 252.678 352.348 248.849C350.69 245.02 349.178 240.641 346.335 238.691C344.711 237.578 342.86 237.425 341.098 236.885C340.099 236.632 339.175 236.143 338.401 235.46C337.628 234.776 337.028 233.917 336.651 232.955L334.653 232.144C331.858 233.547 329.298 235.379 327.066 237.574C324.516 240.294 322.928 243.78 322.546 247.495C322.164 251.509 323.574 255.986 326.207 257.494C328.288 258.686 330.711 257.935 332.819 259.026C335.453 260.389 337.016 264.348 337.608 268.257C338.2 272.167 338.05 276.23 338.474 280.183C338.897 284.137 340.064 288.251 342.479 290.278C345.502 292.813 349.937 290.706 351.292 286.091C351.958 283.827 351.935 281.272 352.432 278.922C353.308 274.783 355.672 271.713 357.547 268.318C359.422 264.923 360.898 260.312 359.651 256.372Z" fill="#C4CCFF"/>
<path d="M328.525 215.704C328.819 215.975 329.093 216.268 329.346 216.578C329.607 217.03 329.74 217.545 329.731 218.068C329.723 218.59 329.572 219.101 329.295 219.544C329.675 219.522 330.046 219.421 330.384 219.249C330.723 219.076 331.023 218.834 331.264 218.539C331.839 217.882 332.344 217.167 332.773 216.405C332.974 216.145 333.118 215.844 333.195 215.523C333.272 215.202 333.279 214.868 333.218 214.544C333.069 214.118 332.717 213.936 332.47 213.615C332.128 212.988 331.895 212.308 331.78 211.603C331.643 210.942 331.326 210.332 330.863 209.842C330.4 209.352 329.81 209.002 329.159 208.83L329.317 208.86C329.048 209.021 328.836 209.261 328.711 209.548C328.585 209.835 328.552 210.155 328.616 210.462C328.711 211.082 329.108 211.597 329.069 212.229C329.012 213.139 328.107 213.565 328.051 214.475C328.042 214.931 328.212 215.373 328.525 215.704Z" fill="#C4CCFF"/>
<path d="M323.129 200.247L323.143 200.245C323.239 200.156 323.329 200.06 323.411 199.958L323.129 200.247Z" fill="#C4CCFF"/>
<path d="M324.073 204.517C324.452 204.184 324.731 203.753 324.882 203.271C325.033 202.789 325.049 202.274 324.928 201.784C324.7 200.749 323.89 200.054 323.143 200.245C322.926 200.466 322.657 200.627 322.361 200.715C322.065 200.802 321.751 200.813 321.45 200.745C320.988 200.626 320.481 200.319 320.081 200.668C319.852 200.929 319.691 201.243 319.614 201.582C319.466 202.039 319.318 202.496 319.169 202.953C319.099 203.116 319.081 203.298 319.117 203.472C319.145 203.542 319.191 203.603 319.25 203.65C319.309 203.697 319.379 203.728 319.453 203.74C320.343 204.004 321.232 204.267 322.122 204.53C322.428 204.672 322.762 204.744 323.099 204.742C323.436 204.739 323.769 204.663 324.073 204.517Z" fill="#C4CCFF"/>
<path d="M391.228 263.458C390.817 262.782 390.406 262.106 389.995 261.43C389.591 260.648 389.038 259.952 388.369 259.382C388.224 259.26 388.057 259.168 387.876 259.111C387.696 259.054 387.506 259.033 387.317 259.05C387.129 259.066 386.946 259.12 386.778 259.208C386.61 259.296 386.461 259.416 386.34 259.561L386.318 259.588L386.369 259.974C387.47 261.159 388.22 262.628 388.535 264.217C388.629 264.908 388.596 265.623 388.679 266.316C388.687 266.638 388.759 266.955 388.89 267.248C389.02 267.542 389.208 267.807 389.44 268.028C390.088 268.463 390.848 267.822 391.309 267.041C391.721 266.4 391.906 265.637 391.834 264.878C391.731 264.368 391.525 263.884 391.228 263.458Z" fill="#C4CCFF"/>
<path d="M397.679 264.337C397.757 263.705 397.706 263.062 397.528 262.45C397.499 261.622 397.717 260.804 398.156 260.102C398.592 259.44 398.922 258.714 399.134 257.949C399.224 257.601 399.208 257.234 399.088 256.895C398.951 256.588 398.622 256.448 398.433 256.691L398.837 256.953C398.291 256.855 397.73 256.882 397.195 257.032C396.89 257.15 396.618 257.339 396.401 257.584C396.185 257.829 396.03 258.123 395.95 258.441C395.884 258.936 395.774 259.425 395.624 259.902C395.383 260.4 394.915 260.566 394.622 261.003C394.421 261.391 394.32 261.822 394.328 262.259C394.335 262.695 394.45 263.123 394.663 263.504C395.032 264.126 395.618 264.589 396.308 264.802C396.802 264.98 397.453 264.989 397.679 264.337Z" fill="#C4CCFF"/>
<path d="M409.166 267.816C409.345 268.283 409.584 268.724 409.878 269.128C410.428 269.684 411.175 269.342 411.842 269.207C412.448 269.111 413.068 269.181 413.637 269.41C414.205 269.639 414.702 270.018 415.073 270.508C414.815 269.212 414.25 267.998 413.427 266.968C412.604 265.937 411.546 265.119 410.343 264.584C408.78 264.041 407.132 263.782 405.478 263.82L405.196 263.893C405.916 265.996 408.176 265.949 409.166 267.816Z" fill="#C4CCFF"/>
<path d="M360.513 272.119L360.517 272.128L360.6 271.969L360.513 272.119Z" fill="#C4CCFF"/>
<path d="M358.77 275.505C358.39 276.197 358.064 276.918 357.793 277.66C357.434 278.863 357.197 280.099 357.084 281.349C356.996 282.06 356.968 282.968 357.412 283.315C357.539 283.399 357.693 283.435 357.845 283.414C357.996 283.394 358.135 283.318 358.235 283.202C358.482 282.941 358.684 282.64 358.832 282.312C359.704 280.804 360.382 279.191 360.847 277.511C361.333 275.73 361.217 273.836 360.517 272.128C359.935 273.254 359.353 274.379 358.77 275.505Z" fill="#C4CCFF"/>
<path d="M341.959 185.296C342.236 185.568 342.586 185.752 342.966 185.826C343.345 185.901 343.739 185.862 344.097 185.715C344.839 185.389 345.519 184.938 346.109 184.381C346.597 184.018 347.011 183.565 347.328 183.045C347.503 182.735 347.615 182.393 347.658 182.039C347.701 181.685 347.674 181.326 347.578 180.982C347.442 180.653 347.224 180.364 346.945 180.143C346.667 179.922 346.337 179.776 345.987 179.719C344.999 179.425 344.012 179.131 343.024 178.837L343.739 178.191C343.004 177.795 342.191 178.53 341.732 179.439C341.437 180.033 341.232 180.668 341.122 181.322C340.966 182.006 340.96 182.715 341.104 183.401C341.249 184.088 341.54 184.734 341.959 185.296Z" fill="#C4CCFF"/>
<path d="M359.391 179.422C359.669 179.73 360.054 179.92 360.467 179.953C360.879 179.987 361.29 179.862 361.614 179.603C361.893 179.393 362.125 179.126 362.294 178.819C362.464 178.513 362.567 178.174 362.597 177.825C362.667 177.046 362.283 176.179 361.735 176.112L361.86 175.382C360.804 175.191 359.503 175.152 358.937 176.44C358.746 176.933 358.688 177.468 358.767 177.992C358.847 178.515 359.062 179.008 359.391 179.422Z" fill="#C4CCFF"/>
<path d="M255.324 257.54C254.309 256.625 253.506 255.498 252.972 254.238C252.438 252.978 252.186 251.616 252.233 250.247C252.28 248.879 252.625 247.537 253.244 246.317C253.863 245.097 254.74 244.028 255.815 243.185L245.106 211.678L261.791 216.028L269.394 245.279C270.686 247.187 271.236 249.504 270.939 251.791C270.643 254.078 269.52 256.176 267.785 257.688C266.05 259.2 263.822 260.02 261.525 259.993C259.227 259.966 257.019 259.093 255.32 257.541L255.324 257.54Z" fill="#FFB7B7"/>
<path d="M250.54 238.42L266.728 231.178L261.289 176.217L266.354 120.796L244.741 109.087L240.162 114.883V115.014L237.736 185.096L237.749 185.149L250.54 238.42Z" fill="#E6E7E8"/>
<path d="M498.523 402.202C489.37 397.977 479.498 392.999 468.905 387.268C414.118 357.619 346.747 311.369 279.202 257.036C211.658 202.704 152.009 146.779 111.244 99.5665C91.3868 76.5673 77.083 56.8709 68.7312 41.0239C59.8883 24.2469 58.105 12.3579 63.4295 5.68787C73.8032 -7.30626 107.586 4.39772 134.1 16.5045L133.131 18.6433C96.7208 2.01742 72.6156 -2.06148 65.2563 7.15738C55.8826 18.8987 73.2896 52.0194 113.013 98.0275C153.688 145.137 213.228 200.956 280.666 255.203C348.104 309.449 415.35 355.616 470.016 385.199C523.402 414.09 559.399 423.927 568.772 412.185C576.555 402.436 565.939 377.883 538.881 343.047L540.727 341.602C560.387 366.915 581.529 399.962 570.599 413.654C565.274 420.324 553.326 421.168 535.087 416.16C524.691 413.306 512.455 408.633 498.523 402.202Z" fill="#C4CCFF"/>
<path d="M148.027 243.778C122.792 232.13 99.7304 220.432 79.5319 208.983C53.1307 194.018 33.066 180.29 19.8953 168.182C5.95113 155.362 0.291871 144.766 3.07471 136.688C8.49516 120.951 44.2321 120.58 73.2572 123.041L73.0599 125.383C33.2013 122.003 9.13245 126.291 5.2864 137.456C0.388019 151.676 27.8689 177.001 80.6828 206.937C134.762 237.59 209.523 270.084 291.198 298.431C372.872 326.78 451.662 347.584 513.052 357.01C573.006 366.215 610.202 363.34 615.1 349.119C619.167 337.313 600.95 317.767 563.805 294.082L565.06 292.099C592.05 309.309 623.025 333.304 617.312 349.887C614.53 357.966 603.558 362.789 584.704 364.225C566.895 365.581 542.669 363.935 512.698 359.332C451.172 349.886 372.237 329.046 290.433 300.652C239.116 282.84 190.504 263.385 148.027 243.778Z" fill="#C4CCFF"/>
<path d="M186.313 124.202C193.846 124.202 199.953 118.071 199.953 110.509C199.953 102.947 193.846 96.8167 186.313 96.8167C178.779 96.8167 172.672 102.947 172.672 110.509C172.672 118.071 178.779 124.202 186.313 124.202Z" fill="#E6E6E6"/>
<path d="M455.18 291.326C459.792 291.326 463.53 287.573 463.53 282.944C463.53 278.315 459.792 274.562 455.18 274.562C450.569 274.562 446.83 278.315 446.83 282.944C446.83 287.573 450.569 291.326 455.18 291.326Z" fill="#FF6584"/>
<path d="M46.7949 364.902C54.3284 364.902 60.4355 358.772 60.4355 351.209C60.4355 343.647 54.3284 337.517 46.7949 337.517C39.2614 337.517 33.1543 343.647 33.1543 351.209C33.1543 358.772 39.2614 364.902 46.7949 364.902Z" fill="#E6E6E6"/>
</g>
<defs>
<clipPath id="clip0_11_312">
<rect width="618" height="469" fill="white"/>
</clipPath>
</defs>
</svg>
