<svg width="114" height="48" viewBox="0 0 114 48" fill="none" xmlns="http://www.w3.org/2000/svg">
<rect y="22" width="12" height="3" fill="#1A1AFF"/>
<path d="M4.92 12.632H15.544C17.592 12.632 19.1813 13.144 20.312 14.168C21.464 15.192 22.04 16.6853 22.04 18.648C22.04 19.6933 21.784 20.6427 21.272 21.496C20.7813 22.328 20.12 22.968 19.288 23.416C21.6133 24.184 22.776 25.9013 22.776 28.568C22.776 29.8907 22.4773 31.0427 21.88 32.024C21.2827 32.984 20.472 33.72 19.448 34.232C18.4453 34.744 17.3253 35 16.088 35H4.92V12.632ZM14.904 21.944C15.8213 21.944 16.5573 21.6987 17.112 21.208C17.6667 20.696 17.944 19.928 17.944 18.904C17.944 17.7307 17.6667 16.9307 17.112 16.504C16.5787 16.056 15.7787 15.832 14.712 15.832H8.952V21.944H14.904ZM15.16 31.8C16.2907 31.8 17.1547 31.5653 17.752 31.096C18.3707 30.6267 18.68 29.7947 18.68 28.6C18.68 27.4053 18.36 26.5413 17.72 26.008C17.08 25.4747 16.152 25.208 14.936 25.208H8.952V31.8H15.16ZM36.402 35.48C34.162 35.48 32.1353 35 30.322 34.04C28.53 33.0587 27.1113 31.6827 26.066 29.912C25.042 28.1413 24.53 26.1147 24.53 23.832C24.53 21.5493 25.042 19.5227 26.066 17.752C27.1113 15.9813 28.53 14.6053 30.322 13.624C32.1353 12.6427 34.162 12.152 36.402 12.152C38.6207 12.152 40.626 12.6427 42.418 13.624C44.2313 14.6053 45.65 15.9813 46.674 17.752C47.7193 19.5227 48.242 21.5493 48.242 23.832C48.242 26.1147 47.7193 28.1413 46.674 29.912C45.65 31.6613 44.2313 33.0267 42.418 34.008C40.626 34.9893 38.6207 35.48 36.402 35.48ZM36.402 31.8C37.8313 31.8 39.1327 31.48 40.306 30.84C41.4793 30.1787 42.4073 29.2507 43.09 28.056C43.794 26.84 44.146 25.432 44.146 23.832C44.146 22.2533 43.8047 20.8667 43.122 19.672C42.4393 18.456 41.5113 17.5173 40.338 16.856C39.1647 16.1947 37.8527 15.864 36.402 15.864C34.9513 15.864 33.6287 16.1947 32.434 16.856C31.2607 17.5173 30.3327 18.456 29.65 19.672C28.9673 20.8667 28.626 22.2533 28.626 23.832C28.626 25.432 28.9673 26.84 29.65 28.056C30.354 29.2507 31.2927 30.1787 32.466 30.84C33.6607 31.48 34.9727 31.8 36.402 31.8ZM57.6775 12.632H61.6135L70.5415 35H66.4135L64.3655 29.848H54.8935L52.8775 35H48.7175L57.6775 12.632ZM63.2455 26.488L59.6295 16.984L56.0135 26.488H63.2455ZM73.7325 12.632H83.0765C85.5512 12.632 87.4605 13.24 88.8045 14.456C90.1485 15.672 90.8205 17.432 90.8205 19.736C90.8205 21.3787 90.4152 22.776 89.6045 23.928C88.7938 25.08 87.6418 25.9013 86.1485 26.392L90.6925 35H86.5325L82.2125 26.808H77.7965V35H73.7325V12.632ZM82.3405 23.448C83.6632 23.448 84.7298 23.1387 85.5405 22.52C86.3512 21.9013 86.7565 20.9733 86.7565 19.736C86.7565 17.24 85.2845 15.992 82.3405 15.992H77.7965V23.448H82.3405ZM94.0138 12.632H101.502C103.934 12.632 106.046 13.08 107.838 13.976C109.63 14.872 111.006 16.152 111.966 17.816C112.926 19.48 113.406 21.4427 113.406 23.704C113.406 27.416 112.328 30.232 110.174 32.152C108.019 34.0507 105.011 35 101.15 35H94.0138V12.632ZM101.214 31.64C103.816 31.64 105.811 30.9467 107.198 29.56C108.606 28.152 109.31 26.2 109.31 23.704C109.31 22.1893 109 20.856 108.382 19.704C107.763 18.5307 106.878 17.624 105.726 16.984C104.574 16.3227 103.208 15.992 101.63 15.992H98.0778V31.64H101.214Z" fill="#1A1AFF"/>
</svg>
