<svg width="549" height="376" viewBox="0 0 549 376" fill="none" xmlns="http://www.w3.org/2000/svg">
<g clip-path="url(#clip0_5_117)">
<path d="M521.277 324.843C523.105 327.694 524.509 330.797 525.444 334.053C526.234 336.964 526.586 339.977 526.488 342.992C526.233 349.196 524.495 355.248 521.42 360.638C519.104 364.728 516.281 368.508 513.019 371.888C511.422 372.973 509.824 374.032 508.225 375.067C508.214 375.071 508.203 375.082 508.192 375.086C508.115 375.136 508.038 375.186 507.967 375.235C507.637 375.448 507.307 375.662 506.98 375.872C506.98 375.872 507.336 376.047 507.143 375.968C507.085 375.944 507.025 375.923 506.968 375.898C507.563 371.004 506.98 366.038 505.266 361.417C503.552 356.795 500.758 352.653 497.117 349.336C493.468 346.07 489.1 343.715 484.37 342.462C484.602 342.129 484.852 341.811 485.112 341.498C486.939 342.011 488.717 342.686 490.426 343.513C496.533 346.452 501.533 351.283 504.687 357.292C507.517 362.748 508.735 368.9 508.198 375.025C508.471 374.777 508.744 374.524 509.01 374.273C514.06 369.554 518.546 364.138 521.582 357.888C524.215 352.594 525.51 346.733 525.351 340.82C525.103 334.373 522.54 328.401 518.828 323.202C514.761 317.655 509.955 312.692 504.546 308.451C499.094 304.075 493.129 300.384 486.782 297.461C486.639 297.394 486.527 297.274 486.47 297.127C486.412 296.979 486.413 296.815 486.473 296.669C486.515 296.537 486.607 296.428 486.73 296.364C486.793 296.337 486.861 296.324 486.93 296.327C486.998 296.33 487.065 296.348 487.126 296.381C487.909 296.742 488.687 297.109 489.459 297.491C495.888 300.676 501.897 304.648 507.349 309.317C512.615 313.817 517.573 318.957 521.277 324.843Z" fill="white"/>
<path d="M457.776 -3.80623e-06H6.48295C4.76401 0.00156465 3.11592 0.686575 1.90047 1.90467C0.68501 3.12276 0.0015123 4.77439 2.38419e-06 6.497V312.959C0.00151034 314.681 0.685009 316.333 1.90047 317.551C3.11592 318.769 4.764 319.454 6.48295 319.456H457.776C458.714 319.456 459.64 319.252 460.491 318.858C461.342 318.465 462.098 317.891 462.706 317.176C462.757 317.12 462.804 317.06 462.847 316.997C463.234 316.523 463.547 315.993 463.776 315.425C464.103 314.644 464.269 313.805 464.267 312.959V6.49703C464.265 4.77321 463.58 3.12063 462.363 1.90239C461.146 0.684155 459.496 -9.17141e-05 457.776 -3.80623e-06ZM462.416 312.959C462.416 313.865 462.15 314.752 461.65 315.507C461.205 316.172 460.602 316.715 459.895 317.087C459.24 317.426 458.513 317.602 457.776 317.601H6.48295C5.25495 317.599 4.07768 317.11 3.20935 316.239C2.34103 315.369 1.85255 314.189 1.85106 312.959V6.49703C1.85255 5.26642 2.34103 4.08663 3.20935 3.21645C4.07768 2.34627 5.25495 1.85674 6.48295 1.85524H457.776C459.005 1.85509 460.184 2.34383 461.054 3.21415C461.924 4.08447 462.414 5.26521 462.416 6.49703V312.959Z" fill="#3F3D56"/>
<path d="M463.337 26.0396H0.923887V27.8969H463.337V26.0396Z" fill="#3F3D56"/>
<path d="M16.6774 19.5018C19.7482 19.5018 22.2375 17.0072 22.2375 13.9299C22.2375 10.8526 19.7482 8.35793 16.6774 8.35793C13.6067 8.35793 11.1174 10.8526 11.1174 13.9299C11.1174 17.0072 13.6067 19.5018 16.6774 19.5018Z" fill="#3F3D56"/>
<path d="M32.6627 19.5018C35.7334 19.5018 38.2228 17.0072 38.2228 13.9299C38.2228 10.8526 35.7334 8.35793 32.6627 8.35793C29.5919 8.35793 27.1026 10.8526 27.1026 13.9299C27.1026 17.0072 29.5919 19.5018 32.6627 19.5018Z" fill="#3F3D56"/>
<path d="M48.6479 19.5018C51.7187 19.5018 54.208 17.0072 54.208 13.9299C54.208 10.8526 51.7187 8.35793 48.6479 8.35793C45.5772 8.35793 43.0878 10.8526 43.0878 13.9299C43.0878 17.0072 45.5772 19.5018 48.6479 19.5018Z" fill="#3F3D56"/>
<path d="M299.483 130.656C296.517 130.656 293.617 129.774 291.15 128.123C288.684 126.471 286.761 124.123 285.626 121.377C284.491 118.63 284.194 115.608 284.772 112.692C285.351 109.776 286.78 107.098 288.877 104.996C290.975 102.894 293.648 101.462 296.557 100.882C299.467 100.302 302.483 100.6 305.223 101.738C307.964 102.875 310.307 104.802 311.955 107.274C313.603 109.746 314.483 112.652 314.483 115.625C314.478 119.61 312.896 123.43 310.084 126.248C307.273 129.066 303.46 130.651 299.483 130.656ZM299.483 102.018C296.798 102.018 294.173 102.816 291.94 104.311C289.707 105.806 287.967 107.931 286.939 110.418C285.912 112.904 285.643 115.64 286.167 118.279C286.691 120.919 287.984 123.343 289.883 125.246C291.781 127.149 294.201 128.445 296.835 128.97C299.468 129.495 302.198 129.225 304.679 128.196C307.16 127.166 309.281 125.422 310.773 123.184C312.265 120.947 313.061 118.316 313.061 115.625C313.057 112.017 311.625 108.559 309.08 106.008C306.534 103.457 303.083 102.022 299.483 102.018Z" fill="#C4CCFF"/>
<path d="M298.067 121.087C297.746 121.087 297.433 120.983 297.176 120.79L297.16 120.778L293.802 118.204C293.488 117.962 293.282 117.606 293.231 117.213C293.179 116.82 293.285 116.422 293.526 116.107C293.767 115.792 294.122 115.586 294.515 115.534C294.907 115.482 295.304 115.589 295.618 115.83L297.793 117.502L302.933 110.782C303.052 110.626 303.2 110.495 303.37 110.397C303.54 110.299 303.727 110.235 303.921 110.209C304.115 110.184 304.313 110.197 304.502 110.247C304.691 110.298 304.868 110.386 305.024 110.505L304.992 110.55L305.025 110.505C305.339 110.747 305.544 111.103 305.596 111.496C305.647 111.889 305.542 112.287 305.301 112.602L299.256 120.502C299.116 120.684 298.936 120.831 298.73 120.932C298.524 121.033 298.298 121.086 298.069 121.085L298.067 121.087Z" fill="#C4CCFF"/>
<path d="M342.401 130.656C339.434 130.656 336.534 129.774 334.068 128.123C331.601 126.471 329.679 124.123 328.543 121.377C327.408 118.63 327.111 115.608 327.69 112.692C328.268 109.776 329.697 107.098 331.795 104.996C333.892 102.894 336.565 101.462 339.474 100.882C342.384 100.302 345.4 100.6 348.141 101.738C350.881 102.875 353.224 104.802 354.872 107.274C356.52 109.746 357.4 112.652 357.4 115.625C357.395 119.61 355.814 123.43 353.002 126.248C350.19 129.066 346.377 130.651 342.401 130.656ZM342.401 102.018C339.715 102.018 337.09 102.816 334.857 104.311C332.624 105.806 330.884 107.931 329.857 110.418C328.829 112.904 328.56 115.64 329.084 118.279C329.608 120.919 330.901 123.343 332.8 125.246C334.699 127.149 337.118 128.445 339.752 128.97C342.386 129.495 345.116 129.225 347.597 128.196C350.078 127.166 352.198 125.422 353.69 123.184C355.182 120.947 355.978 118.316 355.978 115.625C355.974 112.017 354.543 108.559 351.997 106.008C349.452 103.457 346 102.022 342.401 102.018Z" fill="#E6E6E6"/>
<path d="M347.8 120.825C347.62 121.006 347.375 121.107 347.121 121.107C346.866 121.107 346.622 121.006 346.442 120.825L342.843 117.219C342.763 117.138 342.654 117.093 342.54 117.093C342.427 117.093 342.318 117.138 342.238 117.218L338.639 120.825C338.459 121.006 338.214 121.107 337.96 121.107C337.705 121.107 337.461 121.006 337.281 120.825C337.101 120.645 336.999 120.4 336.999 120.145C336.999 119.89 337.101 119.645 337.281 119.465L340.88 115.858C340.96 115.777 341.005 115.668 341.005 115.555C341.005 115.441 340.96 115.332 340.88 115.251L337.281 111.644C337.101 111.464 336.999 111.219 336.999 110.964C336.999 110.709 337.101 110.464 337.281 110.284C337.461 110.104 337.705 110.002 337.959 110.002C338.214 110.002 338.458 110.104 338.638 110.284L342.238 113.891C342.318 113.971 342.427 114.016 342.54 114.016C342.653 114.016 342.762 113.971 342.843 113.891L346.442 110.284C346.622 110.104 346.866 110.002 347.121 110.002C347.375 110.002 347.62 110.104 347.8 110.284C347.98 110.464 348.081 110.709 348.081 110.964C348.081 111.22 347.98 111.464 347.8 111.645L344.2 115.252C344.12 115.332 344.075 115.441 344.075 115.555C344.075 115.669 344.12 115.778 344.2 115.858L347.8 119.465C347.979 119.645 348.08 119.89 348.08 120.145C348.08 120.4 347.979 120.645 347.8 120.825Z" fill="#E6E6E6"/>
<path d="M299.483 178.377C296.517 178.377 293.617 177.496 291.15 175.844C288.684 174.192 286.761 171.845 285.626 169.098C284.491 166.352 284.194 163.329 284.772 160.414C285.351 157.498 286.78 154.82 288.877 152.717C290.975 150.615 293.648 149.184 296.557 148.604C299.467 148.024 302.483 148.321 305.223 149.459C307.964 150.597 310.307 152.523 311.955 154.995C313.603 157.467 314.483 160.373 314.483 163.346C314.478 167.331 312.896 171.152 310.084 173.97C307.273 176.788 303.46 178.373 299.483 178.377ZM299.483 149.739C296.798 149.739 294.173 150.537 291.94 152.033C289.707 153.528 287.967 155.653 286.939 158.139C285.912 160.625 285.643 163.361 286.167 166.001C286.691 168.64 287.984 171.064 289.883 172.967C291.781 174.87 294.201 176.166 296.835 176.691C299.468 177.216 302.198 176.947 304.679 175.917C307.16 174.887 309.281 173.143 310.773 170.905C312.265 168.668 313.061 166.037 313.061 163.346C313.057 159.739 311.625 156.28 309.08 153.729C306.534 151.178 303.083 149.743 299.483 149.739Z" fill="#C4CCFF"/>
<path d="M298.067 168.808C297.746 168.809 297.433 168.705 297.176 168.511L297.16 168.499L293.802 165.925C293.488 165.684 293.282 165.327 293.231 164.934C293.179 164.541 293.285 164.143 293.526 163.828C293.767 163.514 294.122 163.308 294.515 163.256C294.907 163.204 295.304 163.31 295.618 163.551L297.793 165.223L302.933 158.503C303.052 158.348 303.2 158.217 303.37 158.119C303.54 158.02 303.727 157.957 303.921 157.931C304.115 157.905 304.313 157.918 304.502 157.969C304.691 158.02 304.868 158.107 305.024 158.227L304.992 158.271L305.025 158.227C305.339 158.468 305.544 158.825 305.596 159.218C305.647 159.611 305.542 160.008 305.301 160.323L299.256 168.223C299.116 168.405 298.936 168.553 298.73 168.654C298.524 168.755 298.298 168.807 298.069 168.806L298.067 168.808Z" fill="#C4CCFF"/>
<path d="M342.401 178.377C339.434 178.377 336.534 177.496 334.068 175.844C331.601 174.192 329.679 171.845 328.543 169.098C327.408 166.352 327.111 163.329 327.69 160.414C328.268 157.498 329.697 154.82 331.795 152.717C333.892 150.615 336.565 149.184 339.474 148.604C342.384 148.024 345.4 148.321 348.141 149.459C350.881 150.597 353.224 152.523 354.872 154.995C356.52 157.467 357.4 160.373 357.4 163.346C357.395 167.331 355.814 171.152 353.002 173.97C350.19 176.788 346.377 178.373 342.401 178.377ZM342.401 149.739C339.715 149.739 337.09 150.537 334.857 152.033C332.624 153.528 330.884 155.653 329.857 158.139C328.829 160.625 328.56 163.361 329.084 166.001C329.608 168.64 330.901 171.064 332.8 172.967C334.699 174.87 337.118 176.166 339.752 176.691C342.386 177.216 345.116 176.947 347.597 175.917C350.078 174.887 352.198 173.143 353.69 170.905C355.182 168.668 355.978 166.037 355.978 163.346C355.974 159.739 354.543 156.28 351.997 153.729C349.452 151.178 346 149.743 342.401 149.739Z" fill="#E6E6E6"/>
<path d="M347.8 168.547C347.62 168.727 347.375 168.828 347.121 168.828C346.866 168.828 346.622 168.727 346.442 168.547L342.843 164.94C342.763 164.86 342.654 164.815 342.54 164.814C342.427 164.814 342.318 164.86 342.238 164.94L338.639 168.547C338.459 168.727 338.214 168.829 337.96 168.829C337.705 168.829 337.461 168.727 337.281 168.547C337.101 168.366 337 168.122 337 167.866C337 167.611 337.101 167.366 337.281 167.186L340.88 163.579C340.96 163.499 341.005 163.39 341.005 163.276C341.005 163.162 340.96 163.053 340.88 162.973L337.281 159.366C337.101 159.185 336.999 158.941 336.999 158.686C336.999 158.43 337.101 158.186 337.281 158.005C337.461 157.825 337.705 157.724 337.959 157.724C338.214 157.724 338.458 157.825 338.638 158.005L342.238 161.612C342.318 161.693 342.427 161.738 342.54 161.738C342.654 161.738 342.762 161.693 342.843 161.612L346.442 158.005C346.622 157.825 346.866 157.724 347.121 157.724C347.375 157.724 347.62 157.825 347.8 158.005C347.98 158.186 348.081 158.431 348.081 158.686C348.081 158.941 347.98 159.186 347.8 159.366L344.2 162.973C344.12 163.054 344.075 163.163 344.075 163.276C344.075 163.39 344.12 163.499 344.2 163.579L347.8 167.186C347.979 167.367 348.08 167.612 348.08 167.867C348.08 168.122 347.979 168.366 347.8 168.547Z" fill="#E6E6E6"/>
<path d="M299.483 226.099C296.517 226.099 293.617 225.217 291.15 223.565C288.684 221.914 286.761 219.566 285.626 216.82C284.491 214.073 284.194 211.051 284.772 208.135C285.351 205.219 286.78 202.541 288.877 200.439C290.975 198.337 293.648 196.905 296.557 196.325C299.467 195.745 302.483 196.043 305.223 197.18C307.964 198.318 310.307 200.245 311.955 202.717C313.603 205.188 314.483 208.095 314.483 211.067C314.478 215.053 312.896 218.873 310.084 221.691C307.273 224.509 303.46 226.094 299.483 226.099ZM299.483 197.461C296.798 197.461 294.173 198.259 291.94 199.754C289.707 201.249 287.967 203.374 286.939 205.86C285.912 208.347 285.643 211.083 286.167 213.722C286.691 216.361 287.984 218.786 289.883 220.689C291.781 222.592 294.201 223.888 296.835 224.413C299.468 224.938 302.198 224.668 304.679 223.638C307.16 222.608 309.281 220.864 310.773 218.627C312.265 216.389 313.061 213.759 313.061 211.067C313.057 207.46 311.625 204.001 309.08 201.451C306.534 198.9 303.083 197.465 299.483 197.461Z" fill="#E6E6E6"/>
<path d="M298.067 216.53C297.746 216.53 297.433 216.426 297.176 216.233L297.16 216.221L293.802 213.646C293.488 213.405 293.282 213.049 293.231 212.655C293.179 212.262 293.285 211.865 293.526 211.55C293.767 211.235 294.122 211.029 294.515 210.977C294.907 210.925 295.304 211.032 295.618 211.273L297.793 212.944L302.933 206.225C303.052 206.069 303.2 205.938 303.37 205.84C303.54 205.742 303.727 205.678 303.921 205.652C304.115 205.627 304.313 205.639 304.502 205.69C304.691 205.741 304.868 205.828 305.024 205.948L304.992 205.993L305.025 205.948C305.339 206.19 305.544 206.546 305.596 206.939C305.647 207.332 305.542 207.73 305.301 208.044L299.256 215.945C299.116 216.127 298.936 216.274 298.73 216.375C298.524 216.476 298.298 216.528 298.069 216.528L298.067 216.53Z" fill="#E6E6E6"/>
<path d="M342.401 226.099C339.434 226.099 336.534 225.217 334.068 223.565C331.601 221.914 329.679 219.566 328.543 216.82C327.408 214.073 327.111 211.051 327.69 208.135C328.268 205.219 329.697 202.541 331.795 200.439C333.892 198.337 336.565 196.905 339.474 196.325C342.384 195.745 345.4 196.043 348.141 197.18C350.881 198.318 353.224 200.245 354.872 202.717C356.52 205.188 357.4 208.095 357.4 211.067C357.395 215.053 355.814 218.873 353.002 221.691C350.19 224.509 346.377 226.094 342.401 226.099ZM342.401 197.461C339.715 197.461 337.09 198.259 334.857 199.754C332.624 201.249 330.884 203.374 329.857 205.86C328.829 208.347 328.56 211.083 329.084 213.722C329.608 216.361 330.901 218.786 332.8 220.689C334.699 222.592 337.118 223.888 339.752 224.413C342.386 224.938 345.116 224.668 347.597 223.638C350.078 222.608 352.198 220.864 353.69 218.627C355.182 216.389 355.978 213.759 355.978 211.067C355.974 207.46 354.543 204.001 351.997 201.451C349.452 198.9 346 197.465 342.401 197.461Z" fill="#E6E6E6"/>
<path d="M347.8 216.268C347.62 216.448 347.375 216.549 347.121 216.549C346.866 216.549 346.622 216.448 346.442 216.268L342.843 212.661C342.763 212.581 342.654 212.536 342.54 212.536C342.427 212.536 342.318 212.581 342.238 212.661L338.639 216.268C338.459 216.449 338.214 216.55 337.96 216.55C337.705 216.55 337.461 216.449 337.281 216.268C337.101 216.088 337 215.843 337 215.588C337 215.333 337.101 215.088 337.281 214.907L340.88 211.3C340.96 211.22 341.005 211.111 341.005 210.997C341.005 210.884 340.96 210.775 340.88 210.694L337.281 207.087C337.101 206.907 336.999 206.662 336.999 206.407C336.999 206.152 337.101 205.907 337.281 205.727C337.461 205.546 337.705 205.445 337.959 205.445C338.214 205.445 338.458 205.546 338.638 205.727L342.238 209.334C342.318 209.414 342.427 209.459 342.54 209.459C342.654 209.459 342.762 209.414 342.843 209.334L346.442 205.727C346.622 205.547 346.866 205.446 347.12 205.446C347.375 205.447 347.618 205.548 347.798 205.728C347.978 205.908 348.079 206.153 348.079 206.408C348.08 206.662 347.979 206.907 347.8 207.088L344.2 210.694C344.12 210.775 344.075 210.884 344.075 210.998C344.075 211.111 344.12 211.22 344.2 211.301L347.8 214.908C347.979 215.088 348.08 215.333 348.08 215.588C348.08 215.843 347.979 216.088 347.8 216.268Z" fill="#E6E6E6"/>
<path d="M305.317 172.44C306.253 173.007 307.301 173.361 308.387 173.478C309.474 173.595 310.573 173.472 311.607 173.117C312.641 172.762 313.585 172.184 314.372 171.425C315.16 170.665 315.771 169.741 316.163 168.719L342.717 169.605L335.504 157.807L311.394 158.775C309.637 158.228 307.74 158.346 306.064 159.107C304.387 159.868 303.048 161.218 302.299 162.903C301.55 164.587 301.443 166.488 302 168.246C302.556 170.004 303.737 171.496 305.317 172.44Z" fill="#FFB8B8"/>
<path d="M455.035 230.079C455.756 229.255 456.287 228.283 456.592 227.231C456.898 226.18 456.969 225.074 456.802 223.991C456.634 222.909 456.232 221.876 455.623 220.967C455.014 220.057 454.214 219.292 453.279 218.726L458.799 192.682L445.946 197.733L442.674 221.69C441.829 223.328 441.613 225.22 442.067 227.007C442.52 228.794 443.613 230.352 445.136 231.386C446.66 232.42 448.509 232.858 450.334 232.617C452.158 232.376 453.831 231.473 455.035 230.079Z" fill="#FFB8B8"/>
<path d="M392.833 365.81L383.718 365.809L379.382 330.576L392.834 330.577L392.833 365.81Z" fill="#FFB8B8"/>
<path d="M395.157 374.664L365.767 374.663V374.29C365.767 372.785 366.062 371.294 366.637 369.903C367.212 368.512 368.055 367.249 369.117 366.184C370.179 365.12 371.441 364.275 372.828 363.699C374.216 363.123 375.704 362.826 377.206 362.827L395.157 362.827L395.157 374.664Z" fill="#2F2E41"/>
<path d="M437.442 365.81L428.326 365.809L423.99 330.576L437.443 330.577L437.442 365.81Z" fill="#FFB8B8"/>
<path d="M439.766 374.664L410.376 374.663V374.29C410.376 372.785 410.671 371.294 411.246 369.903C411.821 368.512 412.664 367.249 413.726 366.184C414.788 365.12 416.049 364.275 417.437 363.699C418.825 363.123 420.313 362.826 421.815 362.827L439.766 362.827L439.766 374.664Z" fill="#2F2E41"/>
<path d="M393.782 347.412L380.879 346.895C379.999 346.857 379.169 346.473 378.568 345.827C377.968 345.181 377.645 344.325 377.669 343.442L381.304 223.949L381.541 223.863C404.155 215.665 422.863 216.285 438.735 225.755L438.912 225.862L441.09 342.243C441.098 342.689 441.018 343.131 440.854 343.546C440.689 343.96 440.444 344.337 440.133 344.655C439.821 344.973 439.45 345.226 439.04 345.398C438.63 345.571 438.189 345.659 437.745 345.659H426.864C426.089 345.658 425.339 345.388 424.74 344.894C424.142 344.401 423.732 343.715 423.581 342.953L408.76 267.396C408.709 267.135 408.566 266.901 408.358 266.736C408.15 266.57 407.89 266.485 407.625 266.495C407.359 266.505 407.106 266.609 406.911 266.789C406.715 266.97 406.591 267.214 406.559 267.478L397.237 344.466C397.134 345.278 396.741 346.025 396.129 346.567C395.518 347.109 394.731 347.411 393.914 347.414C393.87 347.414 393.826 347.413 393.782 347.412Z" fill="#2F2E41"/>
<path d="M406.335 119.157C416.42 119.157 424.595 110.964 424.595 100.857C424.595 90.7505 416.42 82.5575 406.335 82.5575C396.249 82.5575 388.074 90.7505 388.074 100.857C388.074 110.964 396.249 119.157 406.335 119.157Z" fill="#FFB8B8"/>
<path d="M320.487 168.116C320.284 167.464 320.283 166.766 320.486 166.115L322.378 160.04C322.584 159.383 322.987 158.805 323.532 158.385C324.077 157.964 324.737 157.722 325.424 157.69L349.381 156.628L388.249 136.662C389.599 136.23 391.02 136.068 392.432 136.187C393.843 136.306 395.218 136.703 396.476 137.354C397.735 138.006 398.853 138.9 399.766 139.985C400.68 141.07 401.371 142.325 401.8 143.678C402.229 145.031 402.388 146.455 402.268 147.869C402.147 149.284 401.75 150.661 401.098 151.921C400.446 153.181 399.552 154.301 398.468 155.215C397.384 156.129 396.131 156.82 394.781 157.248L370.961 171.093C363.732 175.297 355.226 176.726 347.024 175.114L323.037 170.404C322.575 170.313 322.138 170.126 321.754 169.855C321.37 169.584 321.047 169.235 320.806 168.831C320.672 168.606 320.565 168.366 320.487 168.116Z" fill="#CCCCCC"/>
<path d="M454.255 213.217C453.615 213.449 452.919 213.479 452.261 213.304L446.123 211.668C445.459 211.49 444.866 211.111 444.424 210.583C443.982 210.056 443.712 209.405 443.65 208.719L441.571 184.777L420.009 146.712C419.521 145.38 419.3 143.964 419.359 142.546C419.417 141.127 419.754 139.734 420.35 138.447C420.946 137.159 421.79 136.002 422.832 135.041C423.875 134.08 425.096 133.335 426.427 132.847C427.757 132.36 429.17 132.14 430.586 132.2C432.001 132.261 433.39 132.6 434.675 133.199C435.959 133.798 437.113 134.645 438.07 135.691C439.028 136.737 439.77 137.962 440.255 139.296L455.073 162.555C459.572 169.613 461.359 178.069 460.102 186.349L456.428 210.567C456.357 211.033 456.19 211.478 455.936 211.875C455.682 212.271 455.347 212.609 454.954 212.868C454.736 213.011 454.501 213.129 454.255 213.217Z" fill="#CCCCCC"/>
<path d="M386.361 133.355C389.498 129.908 393.366 127.211 397.682 125.462C401.997 123.714 406.65 122.958 411.295 123.252C411.601 123.271 411.905 123.292 412.208 123.316C416.611 123.665 420.889 124.952 424.756 127.091C428.623 129.23 431.99 132.171 434.631 135.719C437.317 139.316 439.205 143.446 440.17 147.834C441.135 152.221 441.154 156.764 440.226 161.159C436.685 177.956 437.581 195.388 442.825 211.731L447.724 226.975C447.881 227.463 447.924 227.981 447.85 228.489C447.776 228.997 447.586 229.481 447.296 229.903C447.005 230.326 446.622 230.676 446.175 230.927C445.729 231.178 445.23 231.322 444.719 231.35L419.675 232.699L413.266 221.605V233.044L382.827 234.684C382.766 234.688 382.706 234.689 382.646 234.689C382.184 234.689 381.728 234.593 381.304 234.408C380.881 234.222 380.501 233.95 380.188 233.61C379.875 233.27 379.636 232.868 379.485 232.431C379.334 231.993 379.276 231.529 379.313 231.067L382.753 188.314L378.438 159.277C377.739 154.637 378.088 149.9 379.46 145.413C380.831 140.927 383.19 136.806 386.361 133.355Z" fill="#CCCCCC"/>
<path d="M419.026 118.327C417.335 119.302 410.652 119.948 410.176 118.052L410.166 118.011C409.834 116.622 410.11 115.172 410.205 113.747C410.3 112.322 410.161 110.756 409.192 109.709C407.387 107.756 404.176 108.791 401.565 108.297C400.037 107.955 398.684 107.067 397.762 105.798C396.84 104.529 396.41 102.967 396.554 101.403C396.591 101.107 396.65 100.811 396.715 100.514C396.878 99.7636 396.866 98.9851 396.678 98.24C396.491 97.495 396.134 96.8036 395.635 96.2202C395.136 95.6368 394.508 95.1772 393.802 94.8775C393.096 94.5779 392.331 94.4464 391.565 94.4932C388.927 94.6444 386.08 95.4453 383.897 93.4873C382.21 91.9731 381.798 88.0316 382.539 85.8866C383.786 82.2817 391.769 80.3945 395.254 79.357C399.565 78.1088 404.099 77.839 408.527 78.5671C412.955 79.2952 417.166 81.003 420.853 83.5663C423.054 85.1215 425.11 87.0755 426.049 89.6057C426.987 92.1359 426.534 95.3281 424.418 96.9983C426.058 98.7386 427.213 100.88 427.767 103.209C428.322 105.537 428.255 107.971 427.575 110.265C426.53 113.64 421.542 116.876 419.026 118.327Z" fill="#2F2E41"/>
<path d="M167.002 119.266H50.0815C48.5746 119.264 47.13 118.663 46.0651 117.594C45.0002 116.526 44.402 115.078 44.402 113.567C44.402 112.057 45.0002 110.609 46.0651 109.541C47.13 108.472 48.5746 107.871 50.0815 107.869H167.002C168.509 107.871 169.953 108.472 171.018 109.541C172.083 110.609 172.681 112.057 172.681 113.567C172.681 115.078 172.083 116.526 171.018 117.594C169.953 118.663 168.509 119.264 167.002 119.266Z" fill="#C4CCFF"/>
<path d="M239.188 124.125H38.4477C38.2505 124.125 38.0614 124.046 37.922 123.907C37.7825 123.767 37.7042 123.577 37.7042 123.38C37.7042 123.182 37.7825 122.993 37.922 122.853C38.0614 122.713 38.2505 122.635 38.4477 122.635H239.188C239.385 122.635 239.574 122.713 239.713 122.853C239.853 122.993 239.931 123.182 239.931 123.38C239.931 123.577 239.853 123.767 239.713 123.907C239.574 124.046 239.385 124.125 239.188 124.125Z" fill="#3F3D56"/>
<path d="M167.002 166.987H50.0815C48.5735 166.987 47.1272 166.387 46.0609 165.318C44.9946 164.249 44.3955 162.8 44.3955 161.289C44.3955 159.778 44.9946 158.328 46.0609 157.26C47.1272 156.191 48.5735 155.591 50.0815 155.591H167.002C168.509 155.592 169.953 156.194 171.018 157.262C172.083 158.33 172.681 159.779 172.681 161.289C172.681 162.799 172.083 164.247 171.018 165.316C169.953 166.384 168.509 166.985 167.002 166.987Z" fill="#C4CCFF"/>
<path d="M239.188 171.846H38.4477C38.2505 171.846 38.0614 171.768 37.922 171.628C37.7825 171.488 37.7042 171.299 37.7042 171.101C37.7042 170.904 37.7825 170.714 37.922 170.575C38.0614 170.435 38.2505 170.356 38.4477 170.356H239.188C239.385 170.356 239.574 170.435 239.713 170.575C239.853 170.714 239.931 170.904 239.931 171.101C239.931 171.299 239.853 171.488 239.713 171.628C239.574 171.768 239.385 171.846 239.188 171.846Z" fill="#3F3D56"/>
<path d="M167.002 214.708H50.0815C48.5735 214.708 47.1272 214.108 46.0609 213.039C44.9946 211.971 44.3955 210.521 44.3955 209.01C44.3955 207.499 44.9946 206.05 46.0609 204.981C47.1272 203.912 48.5735 203.312 50.0815 203.312H167.002C168.509 203.314 169.953 203.915 171.018 204.983C172.083 206.052 172.681 207.5 172.681 209.01C172.681 210.52 172.083 211.969 171.018 213.037C169.953 214.105 168.509 214.707 167.002 214.708Z" fill="#F2F2F2"/>
<path d="M239.188 219.568H38.4477C38.2505 219.568 38.0614 219.489 37.922 219.349C37.7825 219.21 37.7042 219.02 37.7042 218.823C37.7042 218.625 37.7825 218.435 37.922 218.296C38.0614 218.156 38.2505 218.077 38.4477 218.077H239.188C239.385 218.077 239.574 218.156 239.713 218.296C239.853 218.435 239.931 218.625 239.931 218.823C239.931 219.02 239.853 219.21 239.713 219.349C239.574 219.489 239.385 219.568 239.188 219.568Z" fill="#3F3D56"/>
</g>
<defs>
<clipPath id="clip0_5_117">
<rect width="549" height="376" fill="white"/>
</clipPath>
</defs>
</svg>
