<svg width="583" height="382" viewBox="0 0 583 382" fill="none" xmlns="http://www.w3.org/2000/svg">
<g clip-path="url(#clip0_10_250)">
<path d="M387.791 349.532L387.065 348.451C388.138 347.725 389.204 346.988 390.262 346.241L391.009 347.308C389.945 348.06 388.872 348.801 387.791 349.532Z" fill="#CCCCCC"/>
<path d="M282.979 382L282.97 380.696C285.597 380.677 288.252 380.604 290.862 380.477L290.925 381.779C288.297 381.907 285.623 381.981 282.979 382ZM275.031 381.894C272.393 381.804 269.723 381.658 267.095 381.459L267.193 380.159C269.803 380.356 272.455 380.502 275.075 380.59L275.031 381.894ZM298.852 381.23L298.736 379.932C301.343 379.697 303.982 379.403 306.58 379.059L306.75 380.351C304.135 380.698 301.477 380.994 298.852 381.23ZM259.183 380.695C256.557 380.386 253.908 380.018 251.309 379.6L251.515 378.313C254.095 378.727 256.726 379.093 259.334 379.4L259.183 380.695ZM314.605 379.142L314.381 377.858C316.959 377.406 319.565 376.891 322.126 376.33L322.403 377.604C319.825 378.169 317.201 378.687 314.605 379.142ZM243.488 378.176C240.904 377.649 238.295 377.06 235.734 376.424L236.046 375.158C238.589 375.79 241.18 376.375 243.747 376.898L243.488 378.176ZM330.13 375.738L329.8 374.477C332.333 373.809 334.887 373.077 337.39 372.302L337.773 373.548C335.253 374.328 332.681 375.065 330.13 375.738ZM228.041 374.34C225.507 373.596 222.951 372.786 220.446 371.934L220.863 370.699C223.351 371.546 225.889 372.35 228.406 373.089L228.041 374.34ZM345.317 371.037L344.882 369.808C347.35 368.928 349.834 367.983 352.263 367L352.749 368.209C350.303 369.199 347.802 370.151 345.317 371.037ZM212.959 369.209C210.493 368.251 208.015 367.229 205.596 366.17L206.115 364.975C208.518 366.027 210.978 367.042 213.428 367.993L212.959 369.209ZM360.057 365.071L359.52 363.883C361.91 362.797 364.305 361.646 366.641 360.463L367.227 361.627C364.875 362.818 362.462 363.977 360.057 365.071ZM198.368 362.824C195.994 361.664 193.611 360.437 191.287 359.178L191.905 358.031C194.213 359.281 196.579 360.5 198.936 361.652L198.368 362.824ZM374.247 357.884L373.613 356.746C375.902 355.464 378.194 354.116 380.424 352.74L381.105 353.85C378.858 355.236 376.551 356.593 374.247 357.884ZM184.367 355.237C182.101 353.883 179.83 352.461 177.617 351.01L178.328 349.919C180.526 351.359 182.781 352.772 185.031 354.117L184.367 355.237ZM171.051 346.505C168.906 344.967 166.762 343.36 164.678 341.73L165.477 340.702C167.546 342.321 169.676 343.916 171.806 345.445L171.051 346.505ZM158.51 336.694C156.496 334.979 154.493 333.2 152.556 331.406L153.437 330.448C155.361 332.23 157.35 333.997 159.35 335.7L158.51 336.694ZM146.827 325.876C144.963 324.001 143.115 322.061 141.332 320.112L142.289 319.23C144.06 321.167 145.896 323.093 147.747 324.955L146.827 325.876ZM136.081 314.125C134.382 312.105 132.7 310.019 131.083 307.926L132.11 307.127C133.716 309.206 135.386 311.278 137.074 313.284L136.081 314.125ZM126.347 301.523C124.819 299.367 123.317 297.149 121.881 294.931L122.97 294.22C124.396 296.423 125.889 298.626 127.406 300.768L126.347 301.523ZM117.693 288.158C116.35 285.881 115.038 283.546 113.792 281.217L114.937 280.6C116.174 282.913 117.478 285.233 118.811 287.494L117.693 288.158ZM110.184 274.12C109.036 271.741 107.923 269.304 106.876 266.879L108.068 266.361C109.108 268.769 110.213 271.189 111.353 273.552L110.184 274.12ZM103.874 259.508C102.928 257.038 102.023 254.515 101.182 252.011L102.413 251.594C103.248 254.082 104.148 256.587 105.087 259.04L103.874 259.508Z" fill="#CCCCCC"/>
<path d="M98.7835 244.329C98.4207 243.075 98.0703 241.814 97.7325 240.549L98.9875 240.211C99.3228 241.468 99.6707 242.72 100.031 243.966L98.7835 244.329Z" fill="#CCCCCC"/>
<path d="M469.449 169.743C469.305 168.45 469.148 167.16 468.979 165.875L470.267 165.703C470.437 166.998 470.595 168.296 470.74 169.599L469.449 169.743Z" fill="#CCCCCC"/>
<path d="M452.639 274.872L451.472 274.299C452.588 272.011 453.673 269.668 454.696 267.334L455.885 267.859C454.855 270.209 453.763 272.568 452.639 274.872ZM458.844 260.719L457.635 260.243C458.562 257.871 459.453 255.447 460.283 253.038L461.511 253.464C460.675 255.89 459.778 258.331 458.844 260.719ZM463.881 246.107L462.637 245.731C463.369 243.287 464.06 240.798 464.691 238.333L465.95 238.657C465.314 241.139 464.618 243.646 463.881 246.107ZM467.714 231.13L466.444 230.857C466.974 228.365 467.461 225.828 467.891 223.315L469.172 223.535C468.739 226.065 468.249 228.621 467.714 231.13ZM470.32 215.888L469.032 215.72C469.359 213.196 469.64 210.627 469.866 208.084L471.16 208.2C470.932 210.761 470.65 213.347 470.32 215.888ZM471.691 200.484L470.393 200.42C470.517 197.879 470.592 195.295 470.615 192.741L471.914 192.753C471.891 195.324 471.816 197.925 471.691 200.484ZM470.531 185.059C470.453 182.51 470.323 179.93 470.143 177.39L471.439 177.298C471.62 179.855 471.751 182.453 471.83 185.019L470.531 185.059Z" fill="#CCCCCC"/>
<path d="M447.228 285.156L446.099 284.513C446.737 283.384 447.364 282.248 447.98 281.106L449.122 281.726C448.503 282.876 447.871 284.02 447.228 285.156Z" fill="#CCCCCC"/>
<path d="M110.866 109.471L109.693 108.91C110.255 107.728 110.828 106.553 111.412 105.384L112.573 105.97C111.993 107.13 111.424 108.297 110.866 109.471Z" fill="#CCCCCC"/>
<path d="M116.201 99.0795L115.065 98.4467C116.325 96.1693 117.648 93.8883 118.999 91.6662L120.108 92.3455C118.767 94.5519 117.452 96.8176 116.201 99.0795ZM443.632 93.2606C442.305 91.0497 440.913 88.8333 439.493 86.6733L440.577 85.9552C442.007 88.1301 443.409 90.3618 444.745 92.5877L443.632 93.2606ZM124.288 85.7763L123.208 85.0524C124.649 82.8867 126.155 80.7213 127.683 78.617L128.733 79.3847C127.215 81.4751 125.72 83.6255 124.288 85.7763ZM435.087 80.2613C433.581 78.1634 432.012 76.0686 430.423 74.0353L431.445 73.2306C433.045 75.2779 434.625 77.387 436.141 79.4993L435.087 80.2613ZM133.435 73.1819L132.417 72.3715C134.031 70.3309 135.708 68.2969 137.402 66.326L138.385 67.1777C136.703 69.1351 135.038 71.155 133.435 73.1819ZM425.509 68.005C423.836 66.0357 422.102 64.0759 420.353 62.1804L421.307 61.2948C423.067 63.2034 424.814 65.1762 426.498 67.159L425.509 68.005ZM143.576 61.3815L142.627 60.4902C144.399 58.5909 146.236 56.7011 148.085 54.8741L148.997 55.8029C147.16 57.6178 145.336 59.4949 143.576 61.3815ZM414.964 56.5716C413.139 54.7477 411.251 52.9362 409.352 51.1875L410.23 50.2268C412.142 51.9877 414.043 53.8116 415.881 55.6479L414.964 56.5716ZM154.64 50.4519L153.767 49.4862C155.688 47.738 157.671 46.0052 159.663 44.336L160.495 45.3368C158.518 46.9944 156.548 48.7155 154.64 50.4519ZM403.524 46.0377C401.555 44.3682 399.525 42.7171 397.491 41.1304L398.288 40.101C400.336 41.6985 402.38 43.361 404.362 45.042L403.524 46.0377ZM166.554 40.4661L165.763 39.4322C167.818 37.8477 169.936 36.2835 172.057 34.7831L172.805 35.8487C170.699 37.339 168.596 38.8927 166.554 40.4661ZM391.262 36.4742C389.163 34.9715 387.005 33.4923 384.848 32.0778L385.559 30.9863C387.731 32.4107 389.903 33.8998 392.016 35.413L391.262 36.4742ZM179.239 31.4924L178.534 30.3968C180.713 28.9864 182.95 27.6018 185.185 26.2814L185.844 27.4051C183.625 28.7165 181.402 30.0915 179.239 31.4924ZM378.259 27.9491C376.046 26.6249 373.774 25.3281 371.506 24.095L372.124 22.9485C374.408 24.1902 376.696 25.4959 378.924 26.8293L378.259 27.9491ZM192.611 23.5931L191.999 22.4434C194.287 21.216 196.63 20.0207 198.963 18.8908L199.527 20.0647C197.211 21.187 194.884 22.3743 192.611 23.5931ZM364.599 20.5227C362.278 19.3825 359.906 18.278 357.551 17.2397L358.073 16.0461C360.445 17.0914 362.833 18.2035 365.17 19.352L364.599 20.5227ZM206.581 16.8262L206.065 15.6294C208.443 14.5971 210.875 13.5999 213.295 12.6657L213.762 13.8829C211.358 14.8104 208.942 15.8006 206.581 16.8262ZM350.373 14.2511C347.971 13.3096 345.516 12.405 343.076 11.5631L343.499 10.3299C345.956 11.1779 348.428 12.0886 350.846 13.0368L350.373 14.2511ZM221.056 11.24L220.64 10.005C223.098 9.17164 225.604 8.3797 228.087 7.6511L228.452 8.90267C225.985 9.62618 223.497 10.4127 221.056 11.24ZM335.674 9.18023C333.2 8.4405 330.678 7.74277 328.178 7.1068L328.497 5.84313C331.015 6.48356 333.554 7.18574 336.045 7.93057L335.674 9.18023ZM235.936 6.8738L235.623 5.60822C238.14 4.98212 240.701 4.40057 243.235 3.88047L243.496 5.15751C240.979 5.67444 238.435 6.25183 235.936 6.8738ZM320.601 5.34689C318.087 4.81723 315.52 4.33214 312.972 3.90466L313.186 2.61871C315.752 3.04906 318.336 3.53765 320.868 4.07111L320.601 5.34689ZM251.132 3.75346L250.924 2.46624C253.485 2.0499 256.089 1.68162 258.665 1.37159L258.82 2.66582C256.261 2.97394 253.675 3.33998 251.132 3.75346ZM305.29 2.77913C302.739 2.45892 300.142 2.18677 297.569 1.97096L297.677 0.671642C300.267 0.889039 302.883 1.16279 305.451 1.48555L305.29 2.77913ZM266.545 1.89583L266.443 0.595875C269.028 0.391835 271.653 0.238094 274.246 0.139099L274.295 1.44193C271.72 1.5403 269.112 1.69275 266.545 1.89583ZM289.821 1.47949C287.248 1.36935 284.637 1.31014 282.059 1.30377L282.062 0C284.657 0.00636894 287.286 0.065899 289.876 0.176987L289.821 1.47949Z" fill="#CCCCCC"/>
<path d="M449.36 103.509C448.762 102.356 448.152 101.21 447.531 100.071L448.671 99.4449C449.296 100.592 449.91 101.746 450.512 102.907L449.36 103.509Z" fill="#CCCCCC"/>
<path d="M240.021 127.769H228.003V229.79C228 232.382 226.973 234.867 225.146 236.7C223.319 238.533 220.843 239.565 218.26 239.568H21.761V248.368C21.7651 251.306 22.9299 254.123 25 256.2C27.07 258.277 29.8764 259.446 32.8039 259.45H240.021C242.948 259.446 245.754 258.277 247.825 256.2C249.895 254.123 251.059 251.306 251.063 248.368V138.851C251.059 135.913 249.895 133.097 247.825 131.02C245.754 128.942 242.948 127.773 240.021 127.769Z" fill="#F2F2F2"/>
<path d="M218.26 109.19H11.0429C8.11541 109.195 5.30901 110.363 3.23896 112.441C1.16891 114.518 0.00414134 117.335 0 120.273V229.79C0.00414306 232.727 1.16892 235.544 3.23897 237.621C5.30902 239.699 8.11541 240.867 11.0429 240.872H218.26C221.187 240.867 223.993 239.699 226.064 237.621C228.134 235.544 229.298 232.727 229.303 229.79V120.273C229.298 117.335 228.134 114.518 226.064 112.441C223.993 110.363 221.187 109.195 218.26 109.19ZM228.003 229.79C228 232.382 226.973 234.867 225.146 236.7C223.319 238.533 220.843 239.565 218.26 239.568H11.0429C8.45966 239.565 5.98313 238.533 4.15651 236.7C2.32989 234.867 1.30231 232.382 1.29916 229.79V120.273C1.30231 117.68 2.32989 115.195 4.15651 113.362C5.98313 111.529 8.45966 110.497 11.0429 110.494H218.26C220.843 110.497 223.319 111.529 225.146 113.362C226.973 115.195 228 117.68 228.003 120.273V229.79Z" fill="#3F3D56"/>
<path d="M202.631 190.024H129.878C128.5 190.024 127.178 189.475 126.204 188.497C125.229 187.519 124.681 186.192 124.681 184.809C124.681 183.426 125.229 182.1 126.204 181.122C127.178 180.144 128.5 179.594 129.878 179.594H202.631C204.01 179.594 205.331 180.144 206.306 181.122C207.28 182.1 207.828 183.426 207.828 184.809C207.828 186.192 207.28 187.519 206.306 188.497C205.331 189.475 204.01 190.024 202.631 190.024Z" fill="#CCCCCC"/>
<path d="M157.161 167.86H129.878C128.5 167.86 127.178 167.311 126.204 166.333C125.229 165.355 124.681 164.028 124.681 162.645C124.681 161.262 125.229 159.936 126.204 158.958C127.178 157.979 128.5 157.43 129.878 157.43H157.161C158.539 157.43 159.861 157.979 160.835 158.958C161.81 159.936 162.357 161.262 162.357 162.645C162.357 164.028 161.81 165.355 160.835 166.333C159.861 167.311 158.539 167.86 157.161 167.86Z" fill="#CCCCCC"/>
<path d="M97.1125 216.1H30.8551C29.3913 216.098 27.9878 215.514 26.9527 214.475C25.9176 213.436 25.3353 212.028 25.3337 210.559V136.896C25.3353 135.427 25.9176 134.018 26.9527 132.979C27.9878 131.941 29.3913 131.356 30.8551 131.355H97.1125C98.5764 131.356 99.9798 131.941 101.015 132.979C102.05 134.018 102.632 135.427 102.634 136.896V210.559C102.632 212.028 102.05 213.436 101.015 214.475C99.9798 215.514 98.5764 216.098 97.1125 216.1Z" fill="#C4CCFF"/>
<path d="M64.9866 200.756C63.5256 200.716 61.7073 200.664 60.3074 199.638C59.8903 199.32 59.5477 198.914 59.3034 198.448C59.0591 197.983 58.9192 197.47 58.8933 196.945C58.868 196.572 58.9291 196.198 59.0717 195.852C59.2143 195.507 59.4346 195.199 59.7154 194.953C60.1327 194.64 60.6213 194.437 61.1368 194.363C61.6522 194.288 62.178 194.345 62.6662 194.526L61.4736 185.779L62.3491 185.659L63.7513 195.942L63.0202 195.606C62.1725 195.215 61.0089 195.017 60.2858 195.63C60.1083 195.79 59.97 195.99 59.8817 196.212C59.7933 196.435 59.7574 196.675 59.7765 196.914C59.7979 197.305 59.903 197.686 60.0845 198.033C60.2661 198.379 60.5199 198.682 60.8287 198.922C61.9181 199.721 63.3675 199.824 65.0114 199.87L64.9866 200.756Z" fill="#3F3D56"/>
<path d="M57.1436 186.534H52.384V187.42H57.1436V186.534Z" fill="#3F3D56"/>
<path d="M72.1671 186.534H67.4075V187.42H72.1671V186.534Z" fill="#3F3D56"/>
<path d="M44.1148 174.287C40.282 173.848 37.3135 170.163 36.9875 166.424C36.5996 161.975 39.1811 157.75 42.7229 155.254C46.4267 152.643 51.0413 151.553 55.5061 151.313C64.2159 150.878 72.7757 153.709 79.5207 159.256C82.8663 162.045 85.9908 165.597 87.175 169.887C88.2035 173.613 87.3666 177.835 84.3804 180.444C83.6417 181.084 82.7789 181.563 81.8465 181.851C80.9141 182.139 79.9323 182.23 78.9631 182.118C76.646 181.877 74.5081 180.654 72.6575 179.304C69.0577 176.677 66.1024 173.018 61.7166 171.645C58.5009 170.639 54.3278 171.525 52.3626 174.443C51.9167 175.111 51.6277 175.872 51.5175 176.669C51.4769 176.838 51.5021 177.017 51.588 177.169C51.674 177.321 51.8142 177.435 51.9804 177.487C52.1499 177.533 52.3305 177.51 52.4831 177.423C52.6358 177.336 52.7481 177.192 52.7957 177.022C53.3116 173.346 57.8154 171.975 60.9758 172.814C65.5838 174.038 68.6772 178.165 72.4579 180.787C74.4149 182.251 76.7204 183.174 79.1444 183.465C81.2461 183.63 83.3318 182.987 84.9785 181.666C88.2084 179.107 89.4435 174.705 88.7293 170.741C87.9023 166.151 84.824 162.218 81.4465 159.172C74.5993 153.063 65.71 149.768 56.5499 149.943C51.8778 150.05 47.0029 151.018 42.9779 153.496C39.0737 155.9 36.0561 159.922 35.6617 164.596C35.3145 168.711 37.5143 173.015 41.2903 174.817C42.1807 175.24 43.1354 175.511 44.1148 175.617C44.961 175.714 44.9541 174.383 44.1148 174.287Z" fill="#3F3D56"/>
<path d="M570.658 300.519H560.226V334.626C560.221 337.564 559.057 340.38 556.987 342.458C554.917 344.535 552.11 345.704 549.183 345.708H288.739V350.715C288.742 353.999 290.044 357.147 292.357 359.469C294.671 361.792 297.809 363.097 301.081 363.1H570.658C573.93 363.097 577.068 361.792 579.382 359.469C581.696 357.147 582.997 353.999 583 350.715V312.905C582.997 309.621 581.696 306.472 579.382 304.15C577.068 301.828 573.93 300.522 570.658 300.519Z" fill="#F2F2F2"/>
<path d="M549.183 284.431H279.606C276.334 284.434 273.196 285.74 270.882 288.062C268.568 290.384 267.267 293.532 267.264 296.817V334.626C267.267 337.91 268.568 341.059 270.882 343.381C273.196 345.703 276.334 347.009 279.606 347.012H549.183C552.455 347.009 555.593 345.703 557.907 343.381C560.221 341.059 561.522 337.91 561.525 334.626V296.817C561.522 293.532 560.221 290.384 557.907 288.062C555.593 285.74 552.455 284.434 549.183 284.431ZM560.226 334.626C560.221 337.564 559.057 340.38 556.987 342.458C554.917 344.535 552.11 345.704 549.183 345.708H279.606C276.679 345.704 273.872 344.535 271.802 342.458C269.732 340.38 268.567 337.564 268.563 334.626V296.817C268.567 293.879 269.732 291.062 271.802 288.985C273.872 286.907 276.679 285.739 279.606 285.734H549.183C552.11 285.739 554.917 286.907 556.987 288.985C559.057 291.062 560.221 293.879 560.226 296.817V334.626Z" fill="#3F3D56"/>
<path d="M326.916 294.863C322.805 294.863 318.786 296.086 315.368 298.378C311.949 300.67 309.285 303.928 307.712 307.74C306.139 311.552 305.727 315.746 306.529 319.793C307.331 323.839 309.311 327.556 312.218 330.474C315.125 333.391 318.829 335.378 322.861 336.183C326.893 336.988 331.073 336.574 334.871 334.996C338.669 333.417 341.916 330.743 344.2 327.312C346.484 323.882 347.703 319.849 347.703 315.723C347.697 310.192 345.504 304.89 341.608 300.98C337.711 297.069 332.427 294.869 326.916 294.863Z" fill="#C4CCFF"/>
<path d="M517.464 333.324H368.71C367.331 333.324 366.009 332.775 365.035 331.797C364.06 330.819 363.513 329.492 363.513 328.109C363.513 326.726 364.06 325.399 365.035 324.421C366.009 323.443 367.331 322.894 368.71 322.894H517.464C518.842 322.894 520.164 323.443 521.138 324.421C522.113 325.399 522.66 326.726 522.66 328.109C522.66 329.492 522.113 330.819 521.138 331.797C520.164 332.775 518.842 333.324 517.464 333.324Z" fill="#CCCCCC"/>
<path d="M442.762 311.16H368.71C367.331 311.16 366.009 310.61 365.035 309.632C364.06 308.654 363.513 307.328 363.513 305.945C363.513 304.562 364.06 303.235 365.035 302.257C366.009 301.279 367.331 300.73 368.71 300.73H442.762C444.14 300.73 445.462 301.279 446.436 302.257C447.411 303.235 447.959 304.562 447.959 305.945C447.959 307.328 447.411 308.654 446.436 309.632C445.462 310.61 444.14 311.16 442.762 311.16Z" fill="#CCCCCC"/>
<path d="M325.507 324.844C324.969 324.845 324.447 324.671 324.017 324.347L323.99 324.327L318.379 320.02C317.854 319.616 317.511 319.02 317.424 318.362C317.338 317.704 317.515 317.038 317.918 316.512C318.32 315.985 318.914 315.64 319.57 315.553C320.225 315.466 320.889 315.644 321.413 316.048L325.048 318.845L333.636 307.601C333.835 307.34 334.083 307.122 334.367 306.957C334.65 306.793 334.963 306.686 335.288 306.643C335.612 306.6 335.942 306.622 336.258 306.707C336.574 306.791 336.871 306.938 337.13 307.138L337.131 307.138L337.078 307.213L337.133 307.138C337.657 307.543 338 308.139 338.086 308.796C338.172 309.454 337.995 310.119 337.594 310.646L327.492 323.865C327.258 324.17 326.958 324.417 326.614 324.586C326.27 324.755 325.892 324.842 325.509 324.841L325.507 324.844Z" fill="white"/>
<path d="M532.333 114.731H530.955C530.981 115.012 530.994 115.299 530.994 115.592V153.401C530.99 156.339 529.825 159.156 527.755 161.233C525.685 163.31 522.879 164.479 519.951 164.483H390.724V164.927C390.724 165.214 390.737 165.5 390.756 165.787C390.974 168.915 392.365 171.844 394.649 173.982C396.934 176.121 399.941 177.311 403.066 177.313H532.333C535.605 177.31 538.743 176.004 541.056 173.682C543.37 171.359 544.672 168.211 544.675 164.927V127.117C544.672 123.833 543.37 120.685 541.056 118.362C538.743 116.04 535.605 114.734 532.333 114.731Z" fill="#F2F2F2"/>
<path d="M532.261 114.731C532.044 111.604 530.652 108.675 528.368 106.536C526.083 104.397 523.076 103.207 519.952 103.206H390.685C387.412 103.209 384.275 104.515 381.961 106.837C379.647 109.159 378.346 112.308 378.343 115.592V153.401C378.346 156.685 379.647 159.834 381.961 162.156C384.275 164.478 387.412 165.784 390.685 165.787H519.952C523.224 165.784 526.361 164.478 528.675 162.156C530.989 159.834 532.291 156.685 532.294 153.401V115.592C532.294 115.305 532.281 115.018 532.261 114.731ZM530.994 153.401C530.99 156.339 529.826 159.156 527.755 161.233C525.685 163.31 522.879 164.479 519.952 164.483H390.685C387.757 164.479 384.951 163.31 382.881 161.233C380.811 159.156 379.646 156.339 379.642 153.401V115.592C379.646 112.654 380.811 109.838 382.881 107.76C384.951 105.683 387.757 104.514 390.685 104.51H519.952C522.73 104.514 525.405 105.568 527.445 107.462C529.484 109.356 530.737 111.952 530.955 114.731C530.981 115.012 530.994 115.299 530.994 115.592V153.401Z" fill="#3F3D56"/>
<path d="M487.148 150.796H423.489C422.111 150.796 420.789 150.246 419.815 149.268C418.84 148.29 418.293 146.964 418.293 145.581C418.293 144.197 418.84 142.871 419.815 141.893C420.789 140.915 422.111 140.365 423.489 140.365H487.148C488.526 140.365 489.848 140.915 490.823 141.893C491.797 142.871 492.345 144.197 492.345 145.581C492.345 146.964 491.797 148.29 490.823 149.268C489.848 150.246 488.526 150.796 487.148 150.796Z" fill="#CCCCCC"/>
<path d="M467.661 128.632H423.489C422.111 128.632 420.789 128.082 419.815 127.104C418.84 126.126 418.293 124.8 418.293 123.416C418.293 122.033 418.84 120.707 419.815 119.729C420.789 118.751 422.111 118.201 423.489 118.201H467.661C469.039 118.201 470.361 118.751 471.335 119.729C472.31 120.707 472.857 122.033 472.857 123.416C472.857 124.8 472.31 126.126 471.335 127.104C470.361 128.082 469.039 128.632 467.661 128.632Z" fill="#CCCCCC"/>
</g>
<defs>
<clipPath id="clip0_10_250">
<rect width="583" height="382" fill="white"/>
</clipPath>
</defs>
</svg>
